<svg width="135" height="107" viewBox="0 0 135 107" fill="none" xmlns="http://www.w3.org/2000/svg">
<g clip-path="url(#clip0_453_7972)">
<path d="M27.6795 89.4518C26.346 85.5723 24.0883 75.9307 32.4229 71.2871C32.4229 71.2871 38.7952 85.7243 28.5826 90.9884C19.0368 97.3796 9.48682 84.8167 9.48682 84.8167C17.5809 79.7637 24.9238 86.4082 27.6753 89.4518H27.6795Z" fill="url(#paint0_linear_453_7972)"/>
<path d="M37.7952 98.1901C35.7105 94.6568 31.5664 85.6652 38.8038 79.4429C38.8038 79.4429 47.9402 92.3097 38.9895 99.5157C30.9165 107.693 19.0454 97.2994 19.0454 97.2994C25.9621 90.7267 34.4866 95.7628 37.791 98.1901H37.7952Z" fill="url(#paint1_linear_453_7972)"/>
<path d="M20.4209 78.8687C19.8343 75.175 19.3195 66.1707 27.5275 63.3086C27.5275 63.3086 30.9838 77.2646 20.9906 80.3884C11.4195 84.6267 4.81934 71.8527 4.81934 71.8527C12.8754 68.5896 18.4248 75.7026 20.4167 78.8645L20.4209 78.8687Z" fill="url(#paint2_linear_453_7972)"/>
<path d="M14.7575 68.3658C14.8166 64.7692 15.8294 56.149 24.0839 54.8066C24.0839 54.8066 25.0334 68.6106 15.0445 69.9024C5.26656 72.3255 1.14355 59.1209 1.14355 59.1209C9.32205 57.369 13.3944 65.0351 14.7575 68.3658Z" fill="url(#paint3_linear_453_7972)"/>
<path d="M12.2804 57.3731C12.5758 53.9707 14.1035 45.8698 22.0119 45.1479C22.0119 45.1479 21.9992 58.285 12.4534 58.8506C3.03423 60.497 0 47.7146 0 47.7146C7.86199 46.6001 11.2127 54.1311 12.2804 57.3731Z" fill="url(#paint4_linear_453_7972)"/>
<path d="M11.6264 45.8022C12.4831 43.0119 15.2177 36.5151 21.9614 37.3341C21.9614 37.3341 19.5855 48.3097 11.504 47.0644C3.33398 46.7436 3.09766 35.5146 3.09766 35.5146C9.87087 35.9959 11.3183 42.8937 11.6264 45.798V45.8022Z" fill="url(#paint5_linear_453_7972)"/>
<path d="M12.6773 36.2111C13.7534 33.8302 16.9184 28.3719 22.8096 29.8621C22.8096 29.8621 19.4589 39.3391 12.4241 37.3213C5.20352 36.114 6.26697 26.1177 6.26697 26.1177C12.2257 27.3123 12.7321 33.6022 12.6773 36.2153V36.2111Z" fill="url(#paint6_linear_453_7972)"/>
<path d="M14.9771 27.8991C16.1418 26.1007 19.3744 22.0735 23.9616 24.0027C23.9616 24.0027 20.0876 31.2677 14.6394 28.7687C8.94235 26.9028 11.0271 18.937 11.0271 18.937C15.7071 20.6382 15.3442 25.7884 14.9771 27.8991Z" fill="url(#paint7_linear_453_7972)"/>
<path d="M17.6694 21.0144C18.9523 19.4651 22.4127 16.0542 26.4893 18.3591C26.4893 18.3591 22.0751 24.7207 17.2558 21.7869C12.1411 19.4187 14.9601 12.2085 14.9601 12.2085C19.1422 14.3108 18.2391 19.0852 17.6694 21.0144Z" fill="url(#paint8_linear_453_7972)"/>
<path d="M21.0878 14.9607C22.4467 13.6394 26.0253 10.8026 29.6039 13.3735C29.6039 13.3735 24.831 18.874 20.6236 15.6446C16.0786 12.9133 19.4462 6.45459 19.4462 6.45459C23.1472 8.84391 21.8179 13.2173 21.0878 14.9649V14.9607Z" fill="url(#paint9_linear_453_7972)"/>
<path d="M24.7085 9.8781C25.907 9.01271 28.9918 7.22284 31.4648 9.61215C31.4648 9.61215 27.1561 13.3228 24.2738 10.3509C21.0708 7.72941 24.4004 3.11963 24.4004 3.11963C26.9873 5.3823 25.4681 8.61168 24.7085 9.8781Z" fill="url(#paint10_linear_453_7972)"/>
<path d="M26.9282 7.20169C26.9282 7.20169 32.1484 8.39213 36.1575 0.0632937C36.1575 0.0632937 29.3126 -1.16514 26.9282 7.20169Z" fill="url(#paint11_linear_453_7972)"/>
<path d="M107.321 89.4518C108.654 85.5723 110.912 75.9307 102.577 71.2871C102.577 71.2871 96.2048 85.7243 106.417 90.9884C115.963 97.3796 125.513 84.8167 125.513 84.8167C117.419 79.7637 110.076 86.4082 107.325 89.4518H107.321Z" fill="url(#paint12_linear_453_7972)"/>
<path d="M97.2093 98.1897C99.294 94.6563 103.438 85.6647 96.2007 79.4424C96.2007 79.4424 87.0642 92.3092 96.015 99.5152C104.088 107.692 115.959 97.2989 115.959 97.2989C109.042 90.7262 100.518 95.7623 97.2135 98.1897H97.2093Z" fill="url(#paint13_linear_453_7972)"/>
<path d="M114.579 78.8687C115.166 75.175 115.68 66.1707 107.472 63.3086C107.472 63.3086 104.016 77.2646 114.009 80.3884C123.58 84.6267 130.181 71.8527 130.181 71.8527C122.124 68.5896 116.575 75.7026 114.583 78.8645L114.579 78.8687Z" fill="url(#paint14_linear_453_7972)"/>
<path d="M120.247 68.3658C120.188 64.7692 119.175 56.149 110.92 54.8066C110.92 54.8066 109.971 68.6106 119.96 69.9024C129.738 72.3255 133.861 59.1209 133.861 59.1209C125.682 57.369 121.61 65.0351 120.247 68.3658Z" fill="url(#paint15_linear_453_7972)"/>
<path d="M122.72 57.3731C122.424 53.9707 120.897 45.8698 112.988 45.1479C112.988 45.1479 113.001 58.285 122.547 58.8506C131.966 60.497 135 47.7146 135 47.7146C127.138 46.6001 123.787 54.1311 122.72 57.3731Z" fill="url(#paint16_linear_453_7972)"/>
<path d="M123.374 45.8022C122.517 43.0119 119.782 36.5151 113.039 37.3341C113.039 37.3341 115.41 48.3097 123.492 47.0644C131.662 46.7436 131.898 35.5146 131.898 35.5146C125.125 35.9959 123.677 42.8937 123.369 45.798L123.374 45.8022Z" fill="url(#paint17_linear_453_7972)"/>
<path d="M122.327 36.2111C121.251 33.8302 118.086 28.3719 112.195 29.8621C112.195 29.8621 115.546 39.3391 122.58 37.3213C129.801 36.114 128.737 26.1177 128.737 26.1177C122.779 27.3123 122.272 33.6022 122.327 36.2153V36.2111Z" fill="url(#paint18_linear_453_7972)"/>
<path d="M120.023 27.8991C118.858 26.1007 115.63 22.0735 111.039 24.0027C111.039 24.0027 114.913 31.2677 120.361 28.7687C126.058 26.9028 123.973 18.937 123.973 18.937C119.293 20.6382 119.656 25.7884 120.023 27.8991Z" fill="url(#paint19_linear_453_7972)"/>
<path d="M117.331 21.0144C116.048 19.4651 112.587 16.0542 108.511 18.3591C108.511 18.3591 112.925 24.7207 117.74 21.7869C122.859 19.4187 120.036 12.2085 120.036 12.2085C115.849 14.3108 116.757 19.0852 117.326 21.0144H117.331Z" fill="url(#paint20_linear_453_7972)"/>
<path d="M113.912 14.9607C112.553 13.6394 108.975 10.8026 105.396 13.3735C105.396 13.3735 110.169 18.874 114.376 15.6446C118.921 12.9133 115.554 6.45459 115.554 6.45459C111.853 8.84391 113.182 13.2173 113.912 14.9649V14.9607Z" fill="url(#paint21_linear_453_7972)"/>
<path d="M110.291 9.8781C109.093 9.01271 106.008 7.22284 103.535 9.61215C103.535 9.61215 107.844 13.3228 110.726 10.3509C113.929 7.72941 110.6 3.11963 110.6 3.11963C108.013 5.3823 109.532 8.61168 110.291 9.8781Z" fill="url(#paint22_linear_453_7972)"/>
<path d="M108.076 7.20169C108.076 7.20169 102.856 8.39213 98.8467 0.0632937C98.8467 0.0632937 105.692 -1.16514 108.076 7.20169Z" fill="url(#paint23_linear_453_7972)"/>
<path d="M48.3536 43.4551H45.5388L45.0577 40.2342H41.631L41.15 43.4551H38.5884L41.4285 25.6914H45.5135L48.3536 43.4551ZM41.9855 37.8195H44.6737L43.3275 28.8364L41.9813 37.8195H41.9855Z" fill="url(#paint24_linear_453_7972)"/>
<path d="M56.853 33.9907L55.8359 43.4551H52.0041L50.0249 25.6914H52.7384L54.2365 39.7023L55.5827 25.6914H58.2709L59.6678 39.8036L61.1152 25.6914H63.5502L61.571 43.4551H57.8658L56.8488 33.9907H56.853Z" fill="url(#paint25_linear_453_7972)"/>
<path d="M74.6109 43.4551H71.7962L71.3151 40.2342H67.8884L67.4073 43.4551H64.8457L67.6858 25.6914H71.7708L74.6109 43.4551ZM68.2429 37.8195H70.931L69.5848 28.8364L68.2386 37.8195H68.2429Z" fill="url(#paint26_linear_453_7972)"/>
<path d="M82.756 43.4551C82.604 42.9992 82.5028 42.7206 82.5028 41.2726V38.4823C82.5028 36.8317 81.9457 36.2238 80.6755 36.2238H79.7133V43.4551H76.9238V25.6914H81.1355C84.0262 25.6914 85.2711 27.038 85.2711 29.7777V31.175C85.2711 33.0029 84.6888 34.1975 83.4438 34.7801C84.8407 35.3626 85.2964 36.7093 85.2964 38.5625V41.3022C85.2964 42.1633 85.3218 42.8008 85.6003 43.4593H82.7602L82.756 43.4551ZM79.7133 28.2285V33.6825H80.8063C81.8444 33.6825 82.4817 33.2266 82.4817 31.804V30.0521C82.4817 28.7857 82.0512 28.2243 81.0595 28.2243H79.7133V28.2285Z" fill="url(#paint27_linear_453_7972)"/>
<path d="M88.1323 25.6914H92.5465C95.336 25.6914 96.7075 27.2407 96.7075 30.0817V39.0648C96.7075 41.9058 95.336 43.4551 92.5465 43.4551H88.1323V25.6914ZM90.9218 28.2285V40.918H92.4959C93.3821 40.918 93.918 40.4621 93.918 39.1915V29.955C93.918 28.6844 93.3863 28.2285 92.4959 28.2285H90.9218Z" fill="url(#paint28_linear_453_7972)"/>
<path d="M38.8881 55.6972L37.8711 65.1616H34.0393L32.0601 47.3979H34.7736L36.2717 61.4088L37.6179 47.3979H40.3061L41.7029 61.5101L43.1504 47.3979H45.5854L43.6062 65.1616H39.9009L38.8881 55.6972Z" fill="url(#paint29_linear_453_7972)"/>
<path d="M47.999 47.3979H50.7885V65.1616H47.999V47.3979Z" fill="url(#paint30_linear_453_7972)"/>
<path d="M56.3171 52.2987V65.1655H53.8062V47.4019H57.3088L60.1742 58.0356V47.4019H62.6599V65.1655H59.7944L56.3171 52.2987Z" fill="url(#paint31_linear_453_7972)"/>
<path d="M68.1672 52.2987V65.1655H65.6562V47.4019H69.1589L72.0243 58.0356V47.4019H74.51V65.1655H71.6445L68.1672 52.2987Z" fill="url(#paint32_linear_453_7972)"/>
<path d="M77.5269 47.3979H80.3163V65.1616H77.5269V47.3979Z" fill="url(#paint33_linear_453_7972)"/>
<path d="M85.8488 52.2987V65.1655H83.3379V47.4019H86.8405L89.706 58.0356V47.4019H92.1916V65.1655H89.3262L85.8488 52.2987Z" fill="url(#paint34_linear_453_7972)"/>
<path d="M99.3956 55.2668H103.303V60.9024C103.303 63.7434 101.881 65.3686 99.1424 65.3686C96.4036 65.3686 94.9814 63.7434 94.9814 60.9024V51.666C94.9814 48.8249 96.4036 47.1997 99.1424 47.1997C101.881 47.1997 103.303 48.8249 103.303 51.666V53.3925H100.666V51.4887C100.666 50.218 100.109 49.7368 99.2184 49.7368C98.328 49.7368 97.7709 50.218 97.7709 51.4887V61.0839C97.7709 62.3546 98.328 62.8105 99.2184 62.8105C100.109 62.8105 100.666 62.3546 100.666 61.0839V57.8081H99.3956V55.271V55.2668Z" fill="url(#paint35_linear_453_7972)"/>
<path d="M67.8209 76.5806L72.7626 86.5937L83.8107 88.1979L75.8137 95.9948L77.7001 107L67.8209 101.803L57.9375 107L59.8239 95.9948L51.8311 88.1979L62.8792 86.5937L67.8209 76.5806Z" fill="url(#paint36_linear_453_7972)"/>
</g>
<defs>
<linearGradient id="paint0_linear_453_7972" x1="33.8746" y1="91.6301" x2="-24.6814" y2="30.4593" gradientUnits="userSpaceOnUse">
<stop stop-color="#A47A1E"/>
<stop offset="0.23" stop-color="#D3A84C"/>
<stop offset="0.41" stop-color="#FFEC94"/>
<stop offset="0.59" stop-color="#E6BE69"/>
<stop offset="0.77" stop-color="#FFD87C"/>
<stop offset="1" stop-color="#B58F3E"/>
</linearGradient>
<linearGradient id="paint1_linear_453_7972" x1="32.921" y1="92.5461" x2="-25.6392" y2="31.3754" gradientUnits="userSpaceOnUse">
<stop stop-color="#A47A1E"/>
<stop offset="0.23" stop-color="#D3A84C"/>
<stop offset="0.41" stop-color="#FFEC94"/>
<stop offset="0.59" stop-color="#E6BE69"/>
<stop offset="0.77" stop-color="#FFD87C"/>
<stop offset="1" stop-color="#B58F3E"/>
</linearGradient>
<linearGradient id="paint2_linear_453_7972" x1="36.3432" y1="89.266" x2="-22.2127" y2="28.0953" gradientUnits="userSpaceOnUse">
<stop stop-color="#A47A1E"/>
<stop offset="0.23" stop-color="#D3A84C"/>
<stop offset="0.41" stop-color="#FFEC94"/>
<stop offset="0.59" stop-color="#E6BE69"/>
<stop offset="0.77" stop-color="#FFD87C"/>
<stop offset="1" stop-color="#B58F3E"/>
</linearGradient>
<linearGradient id="paint3_linear_453_7972" x1="39.331" y1="86.4081" x2="-19.225" y2="25.2373" gradientUnits="userSpaceOnUse">
<stop stop-color="#A47A1E"/>
<stop offset="0.23" stop-color="#D3A84C"/>
<stop offset="0.41" stop-color="#FFEC94"/>
<stop offset="0.59" stop-color="#E6BE69"/>
<stop offset="0.77" stop-color="#FFD87C"/>
<stop offset="1" stop-color="#B58F3E"/>
</linearGradient>
<linearGradient id="paint4_linear_453_7972" x1="43.568" y1="82.3512" x2="-14.988" y2="21.1805" gradientUnits="userSpaceOnUse">
<stop stop-color="#A47A1E"/>
<stop offset="0.23" stop-color="#D3A84C"/>
<stop offset="0.41" stop-color="#FFEC94"/>
<stop offset="0.59" stop-color="#E6BE69"/>
<stop offset="0.77" stop-color="#FFD87C"/>
<stop offset="1" stop-color="#B58F3E"/>
</linearGradient>
<linearGradient id="paint5_linear_453_7972" x1="48.8474" y1="77.2981" x2="-9.70854" y2="16.1274" gradientUnits="userSpaceOnUse">
<stop stop-color="#A47A1E"/>
<stop offset="0.23" stop-color="#D3A84C"/>
<stop offset="0.41" stop-color="#FFEC94"/>
<stop offset="0.59" stop-color="#E6BE69"/>
<stop offset="0.77" stop-color="#FFD87C"/>
<stop offset="1" stop-color="#B58F3E"/>
</linearGradient>
<linearGradient id="paint6_linear_453_7972" x1="53.882" y1="72.4772" x2="-4.67394" y2="11.3064" gradientUnits="userSpaceOnUse">
<stop stop-color="#A47A1E"/>
<stop offset="0.23" stop-color="#D3A84C"/>
<stop offset="0.41" stop-color="#FFEC94"/>
<stop offset="0.59" stop-color="#E6BE69"/>
<stop offset="0.77" stop-color="#FFD87C"/>
<stop offset="1" stop-color="#B58F3E"/>
</linearGradient>
<linearGradient id="paint7_linear_453_7972" x1="58.6041" y1="67.956" x2="0.048177" y2="6.78524" gradientUnits="userSpaceOnUse">
<stop stop-color="#A47A1E"/>
<stop offset="0.23" stop-color="#D3A84C"/>
<stop offset="0.41" stop-color="#FFEC94"/>
<stop offset="0.59" stop-color="#E6BE69"/>
<stop offset="0.77" stop-color="#FFD87C"/>
<stop offset="1" stop-color="#B58F3E"/>
</linearGradient>
<linearGradient id="paint8_linear_453_7972" x1="63.2081" y1="63.5535" x2="4.64795" y2="2.38272" gradientUnits="userSpaceOnUse">
<stop stop-color="#A47A1E"/>
<stop offset="0.23" stop-color="#D3A84C"/>
<stop offset="0.41" stop-color="#FFEC94"/>
<stop offset="0.59" stop-color="#E6BE69"/>
<stop offset="0.77" stop-color="#FFD87C"/>
<stop offset="1" stop-color="#B58F3E"/>
</linearGradient>
<linearGradient id="paint9_linear_453_7972" x1="67.7491" y1="59.2053" x2="9.18893" y2="-1.96546" gradientUnits="userSpaceOnUse">
<stop stop-color="#A47A1E"/>
<stop offset="0.23" stop-color="#D3A84C"/>
<stop offset="0.41" stop-color="#FFEC94"/>
<stop offset="0.59" stop-color="#E6BE69"/>
<stop offset="0.77" stop-color="#FFD87C"/>
<stop offset="1" stop-color="#B58F3E"/>
</linearGradient>
<linearGradient id="paint10_linear_453_7972" x1="71.5048" y1="55.6128" x2="12.9446" y2="-5.55792" gradientUnits="userSpaceOnUse">
<stop stop-color="#A47A1E"/>
<stop offset="0.23" stop-color="#D3A84C"/>
<stop offset="0.41" stop-color="#FFEC94"/>
<stop offset="0.59" stop-color="#E6BE69"/>
<stop offset="0.77" stop-color="#FFD87C"/>
<stop offset="1" stop-color="#B58F3E"/>
</linearGradient>
<linearGradient id="paint11_linear_453_7972" x1="76.5984" y1="50.7328" x2="18.0425" y2="-10.4379" gradientUnits="userSpaceOnUse">
<stop stop-color="#A47A1E"/>
<stop offset="0.23" stop-color="#D3A84C"/>
<stop offset="0.41" stop-color="#FFEC94"/>
<stop offset="0.59" stop-color="#E6BE69"/>
<stop offset="0.77" stop-color="#FFD87C"/>
<stop offset="1" stop-color="#B58F3E"/>
</linearGradient>
<linearGradient id="paint12_linear_453_7972" x1="101.125" y1="91.6301" x2="159.686" y2="30.4593" gradientUnits="userSpaceOnUse">
<stop stop-color="#A47A1E"/>
<stop offset="0.23" stop-color="#D3A84C"/>
<stop offset="0.41" stop-color="#FFEC94"/>
<stop offset="0.59" stop-color="#E6BE69"/>
<stop offset="0.77" stop-color="#FFD87C"/>
<stop offset="1" stop-color="#B58F3E"/>
</linearGradient>
<linearGradient id="paint13_linear_453_7972" x1="102.083" y1="92.5456" x2="160.639" y2="31.3749" gradientUnits="userSpaceOnUse">
<stop stop-color="#A47A1E"/>
<stop offset="0.23" stop-color="#D3A84C"/>
<stop offset="0.41" stop-color="#FFEC94"/>
<stop offset="0.59" stop-color="#E6BE69"/>
<stop offset="0.77" stop-color="#FFD87C"/>
<stop offset="1" stop-color="#B58F3E"/>
</linearGradient>
<linearGradient id="paint14_linear_453_7972" x1="98.6567" y1="89.266" x2="157.217" y2="28.0953" gradientUnits="userSpaceOnUse">
<stop stop-color="#A47A1E"/>
<stop offset="0.23" stop-color="#D3A84C"/>
<stop offset="0.41" stop-color="#FFEC94"/>
<stop offset="0.59" stop-color="#E6BE69"/>
<stop offset="0.77" stop-color="#FFD87C"/>
<stop offset="1" stop-color="#B58F3E"/>
</linearGradient>
<linearGradient id="paint15_linear_453_7972" x1="95.6731" y1="86.4081" x2="154.229" y2="25.2373" gradientUnits="userSpaceOnUse">
<stop stop-color="#A47A1E"/>
<stop offset="0.23" stop-color="#D3A84C"/>
<stop offset="0.41" stop-color="#FFEC94"/>
<stop offset="0.59" stop-color="#E6BE69"/>
<stop offset="0.77" stop-color="#FFD87C"/>
<stop offset="1" stop-color="#B58F3E"/>
</linearGradient>
<linearGradient id="paint16_linear_453_7972" x1="91.4322" y1="82.3512" x2="149.992" y2="21.1805" gradientUnits="userSpaceOnUse">
<stop stop-color="#A47A1E"/>
<stop offset="0.23" stop-color="#D3A84C"/>
<stop offset="0.41" stop-color="#FFEC94"/>
<stop offset="0.59" stop-color="#E6BE69"/>
<stop offset="0.77" stop-color="#FFD87C"/>
<stop offset="1" stop-color="#B58F3E"/>
</linearGradient>
<linearGradient id="paint17_linear_453_7972" x1="86.1567" y1="77.2981" x2="144.713" y2="16.1274" gradientUnits="userSpaceOnUse">
<stop stop-color="#A47A1E"/>
<stop offset="0.23" stop-color="#D3A84C"/>
<stop offset="0.41" stop-color="#FFEC94"/>
<stop offset="0.59" stop-color="#E6BE69"/>
<stop offset="0.77" stop-color="#FFD87C"/>
<stop offset="1" stop-color="#B58F3E"/>
</linearGradient>
<linearGradient id="paint18_linear_453_7972" x1="81.1224" y1="72.4772" x2="139.678" y2="11.3064" gradientUnits="userSpaceOnUse">
<stop stop-color="#A47A1E"/>
<stop offset="0.23" stop-color="#D3A84C"/>
<stop offset="0.41" stop-color="#FFEC94"/>
<stop offset="0.59" stop-color="#E6BE69"/>
<stop offset="0.77" stop-color="#FFD87C"/>
<stop offset="1" stop-color="#B58F3E"/>
</linearGradient>
<linearGradient id="paint19_linear_453_7972" x1="76.396" y1="67.956" x2="134.956" y2="6.78525" gradientUnits="userSpaceOnUse">
<stop stop-color="#A47A1E"/>
<stop offset="0.23" stop-color="#D3A84C"/>
<stop offset="0.41" stop-color="#FFEC94"/>
<stop offset="0.59" stop-color="#E6BE69"/>
<stop offset="0.77" stop-color="#FFD87C"/>
<stop offset="1" stop-color="#B58F3E"/>
</linearGradient>
<linearGradient id="paint20_linear_453_7972" x1="71.7961" y1="63.5492" x2="130.352" y2="2.38272" gradientUnits="userSpaceOnUse">
<stop stop-color="#A47A1E"/>
<stop offset="0.23" stop-color="#D3A84C"/>
<stop offset="0.41" stop-color="#FFEC94"/>
<stop offset="0.59" stop-color="#E6BE69"/>
<stop offset="0.77" stop-color="#FFD87C"/>
<stop offset="1" stop-color="#B58F3E"/>
</linearGradient>
<linearGradient id="paint21_linear_453_7972" x1="67.255" y1="59.2053" x2="125.815" y2="-1.96546" gradientUnits="userSpaceOnUse">
<stop stop-color="#A47A1E"/>
<stop offset="0.23" stop-color="#D3A84C"/>
<stop offset="0.41" stop-color="#FFEC94"/>
<stop offset="0.59" stop-color="#E6BE69"/>
<stop offset="0.77" stop-color="#FFD87C"/>
<stop offset="1" stop-color="#B58F3E"/>
</linearGradient>
<linearGradient id="paint22_linear_453_7972" x1="63.4994" y1="55.6128" x2="122.06" y2="-5.55794" gradientUnits="userSpaceOnUse">
<stop stop-color="#A47A1E"/>
<stop offset="0.23" stop-color="#D3A84C"/>
<stop offset="0.41" stop-color="#FFEC94"/>
<stop offset="0.59" stop-color="#E6BE69"/>
<stop offset="0.77" stop-color="#FFD87C"/>
<stop offset="1" stop-color="#B58F3E"/>
</linearGradient>
<linearGradient id="paint23_linear_453_7972" x1="58.4057" y1="50.7328" x2="116.962" y2="-10.4379" gradientUnits="userSpaceOnUse">
<stop stop-color="#A47A1E"/>
<stop offset="0.23" stop-color="#D3A84C"/>
<stop offset="0.41" stop-color="#FFEC94"/>
<stop offset="0.59" stop-color="#E6BE69"/>
<stop offset="0.77" stop-color="#FFD87C"/>
<stop offset="1" stop-color="#B58F3E"/>
</linearGradient>
<linearGradient id="paint24_linear_453_7972" x1="55.8442" y1="71.0167" x2="41.9483" y2="34.3313" gradientUnits="userSpaceOnUse">
<stop stop-color="#A47A1E"/>
<stop offset="0.23" stop-color="#D3A84C"/>
<stop offset="0.41" stop-color="#FFEC94"/>
<stop offset="0.59" stop-color="#E6BE69"/>
<stop offset="0.77" stop-color="#FFD87C"/>
<stop offset="1" stop-color="#B58F3E"/>
</linearGradient>
<linearGradient id="paint25_linear_453_7972" x1="69.6018" y1="65.8032" x2="55.7058" y2="29.1221" gradientUnits="userSpaceOnUse">
<stop stop-color="#A47A1E"/>
<stop offset="0.23" stop-color="#D3A84C"/>
<stop offset="0.41" stop-color="#FFEC94"/>
<stop offset="0.59" stop-color="#E6BE69"/>
<stop offset="0.77" stop-color="#FFD87C"/>
<stop offset="1" stop-color="#B58F3E"/>
</linearGradient>
<linearGradient id="paint26_linear_453_7972" x1="78.8099" y1="62.3163" x2="64.914" y2="25.631" gradientUnits="userSpaceOnUse">
<stop stop-color="#A47A1E"/>
<stop offset="0.23" stop-color="#D3A84C"/>
<stop offset="0.41" stop-color="#FFEC94"/>
<stop offset="0.59" stop-color="#E6BE69"/>
<stop offset="0.77" stop-color="#FFD87C"/>
<stop offset="1" stop-color="#B58F3E"/>
</linearGradient>
<linearGradient id="paint27_linear_453_7972" x1="89.5123" y1="58.2638" x2="75.6121" y2="21.5785" gradientUnits="userSpaceOnUse">
<stop stop-color="#A47A1E"/>
<stop offset="0.23" stop-color="#D3A84C"/>
<stop offset="0.41" stop-color="#FFEC94"/>
<stop offset="0.59" stop-color="#E6BE69"/>
<stop offset="0.77" stop-color="#FFD87C"/>
<stop offset="1" stop-color="#B58F3E"/>
</linearGradient>
<linearGradient id="paint28_linear_453_7972" x1="99.3746" y1="54.5236" x2="85.4786" y2="17.8425" gradientUnits="userSpaceOnUse">
<stop stop-color="#A47A1E"/>
<stop offset="0.23" stop-color="#D3A84C"/>
<stop offset="0.41" stop-color="#FFEC94"/>
<stop offset="0.59" stop-color="#E6BE69"/>
<stop offset="0.77" stop-color="#FFD87C"/>
<stop offset="1" stop-color="#B58F3E"/>
</linearGradient>
<linearGradient id="paint29_linear_453_7972" x1="46.7037" y1="74.4783" x2="32.8077" y2="37.7929" gradientUnits="userSpaceOnUse">
<stop stop-color="#A47A1E"/>
<stop offset="0.23" stop-color="#D3A84C"/>
<stop offset="0.41" stop-color="#FFEC94"/>
<stop offset="0.59" stop-color="#E6BE69"/>
<stop offset="0.77" stop-color="#FFD87C"/>
<stop offset="1" stop-color="#B58F3E"/>
</linearGradient>
<linearGradient id="paint30_linear_453_7972" x1="55.0803" y1="71.3038" x2="41.1844" y2="34.6227" gradientUnits="userSpaceOnUse">
<stop stop-color="#A47A1E"/>
<stop offset="0.23" stop-color="#D3A84C"/>
<stop offset="0.41" stop-color="#FFEC94"/>
<stop offset="0.59" stop-color="#E6BE69"/>
<stop offset="0.77" stop-color="#FFD87C"/>
<stop offset="1" stop-color="#B58F3E"/>
</linearGradient>
<linearGradient id="paint31_linear_453_7972" x1="62.8118" y1="68.3738" x2="48.9158" y2="31.6927" gradientUnits="userSpaceOnUse">
<stop stop-color="#A47A1E"/>
<stop offset="0.23" stop-color="#D3A84C"/>
<stop offset="0.41" stop-color="#FFEC94"/>
<stop offset="0.59" stop-color="#E6BE69"/>
<stop offset="0.77" stop-color="#FFD87C"/>
<stop offset="1" stop-color="#B58F3E"/>
</linearGradient>
<linearGradient id="paint32_linear_453_7972" x1="73.1764" y1="64.4479" x2="59.2805" y2="27.7668" gradientUnits="userSpaceOnUse">
<stop stop-color="#A47A1E"/>
<stop offset="0.23" stop-color="#D3A84C"/>
<stop offset="0.41" stop-color="#FFEC94"/>
<stop offset="0.59" stop-color="#E6BE69"/>
<stop offset="0.77" stop-color="#FFD87C"/>
<stop offset="1" stop-color="#B58F3E"/>
</linearGradient>
<linearGradient id="paint33_linear_453_7972" x1="80.9071" y1="61.5228" x2="67.0112" y2="24.8374" gradientUnits="userSpaceOnUse">
<stop stop-color="#A47A1E"/>
<stop offset="0.23" stop-color="#D3A84C"/>
<stop offset="0.41" stop-color="#FFEC94"/>
<stop offset="0.59" stop-color="#E6BE69"/>
<stop offset="0.77" stop-color="#FFD87C"/>
<stop offset="1" stop-color="#B58F3E"/>
</linearGradient>
<linearGradient id="paint34_linear_453_7972" x1="88.6383" y1="58.5928" x2="74.7424" y2="21.9075" gradientUnits="userSpaceOnUse">
<stop stop-color="#A47A1E"/>
<stop offset="0.23" stop-color="#D3A84C"/>
<stop offset="0.41" stop-color="#FFEC94"/>
<stop offset="0.59" stop-color="#E6BE69"/>
<stop offset="0.77" stop-color="#FFD87C"/>
<stop offset="1" stop-color="#B58F3E"/>
</linearGradient>
<linearGradient id="paint35_linear_453_7972" x1="98.5896" y1="54.8236" x2="84.6936" y2="18.1382" gradientUnits="userSpaceOnUse">
<stop stop-color="#A47A1E"/>
<stop offset="0.23" stop-color="#D3A84C"/>
<stop offset="0.41" stop-color="#FFEC94"/>
<stop offset="0.59" stop-color="#E6BE69"/>
<stop offset="0.77" stop-color="#FFD87C"/>
<stop offset="1" stop-color="#B58F3E"/>
</linearGradient>
<linearGradient id="paint36_linear_453_7972" x1="74.8431" y1="108.085" x2="63.5228" y2="78.2082" gradientUnits="userSpaceOnUse">
<stop stop-color="#A47A1E"/>
<stop offset="0.23" stop-color="#D3A84C"/>
<stop offset="0.41" stop-color="#FFEC94"/>
<stop offset="0.59" stop-color="#E6BE69"/>
<stop offset="0.77" stop-color="#FFD87C"/>
<stop offset="1" stop-color="#B58F3E"/>
</linearGradient>
<clipPath id="clip0_453_7972">
<rect width="135" height="107" fill="white"/>
</clipPath>
</defs>
</svg>
