<svg xmlns="http://www.w3.org/2000/svg"
     aria-hidden="true"
     style="position:absolute;width:0;height:0;overflow:hidden">
   <defs>


    <symbol id="icon-advanced" viewBox="0 0 29 32">
      <path fill="#7d8897" style="fill: var(--color1, #7d8897)" d="M22.324 21.541l5.486-5.541-5.486-5.541v4.156h-6.939c-0.466-4.294-3.099-7.924-6.775-9.766-0.055-2.272-1.865-4.087-4.114-4.087-2.277 0-4.114 1.856-4.114 4.156s1.838 4.156 4.114 4.156c1.303 0 2.441-0.623 3.195-1.579 2.606 1.441 4.485 4.031 4.923 7.12h-4.251c-0.576-1.607-2.085-2.771-3.867-2.771-2.277 0-4.114 1.856-4.114 4.156s1.838 4.156 4.114 4.156c1.783 0 3.291-1.164 3.867-2.771h4.251c-0.439 3.089-2.318 5.68-4.91 7.12-0.768-0.956-1.906-1.579-3.209-1.579-2.277 0-4.114 1.856-4.114 4.156s1.838 4.156 4.114 4.156c2.249 0 4.059-1.815 4.101-4.087 3.675-1.843 6.309-5.472 6.775-9.766h6.953v4.156z"></path>
    </symbol>
    <symbol id="icon-analytics" viewBox="0 0 32 32">
      <path d="M7.822 23.111l5.422-5.422 3.556 3.555 6.311-6.267v2.8h3.556v-8.889h-8.889v3.556h2.8l-3.778 3.778-3.556-3.556-7.911 7.956 2.489 2.489zM3.556 32c-0.978 0-1.815-0.348-2.512-1.044-0.696-0.697-1.044-1.534-1.044-2.512v-24.889c0-0.978 0.348-1.815 1.044-2.512 0.697-0.696 1.534-1.044 2.512-1.044h24.889c0.978 0 1.815 0.348 2.512 1.044 0.696 0.697 1.044 1.534 1.044 2.512v24.889c0 0.978-0.348 1.815-1.044 2.512-0.697 0.696-1.534 1.044-2.512 1.044h-24.889z"></path>
    </symbol>
    <symbol id="icon-communication" viewBox="0 0 26 32">
      <path d="M8 31.238v-20.152c-2.311-0.61-4.158-1.886-5.542-3.829-1.385-1.942-2.077-4.107-2.077-6.494h3.048c0 2.108 0.68 3.904 2.039 5.39 1.358 1.486 3.091 2.229 5.199 2.229h3.809c0.762 0 1.473 0.14 2.133 0.419s1.257 0.686 1.791 1.219l6.895 6.895-2.133 2.133-6.019-6.019v18.209h-3.048v-9.143h-3.048v9.143h-3.048zM12.572 6.857c-0.838 0-1.555-0.299-2.152-0.896-0.597-0.596-0.896-1.314-0.896-2.152s0.299-1.556 0.896-2.153c0.596-0.596 1.313-0.894 2.152-0.894s1.556 0.298 2.153 0.894c0.596 0.597 0.894 1.315 0.894 2.153s-0.298 1.555-0.894 2.152c-0.597 0.597-1.315 0.896-2.153 0.896z"></path>
    </symbol>
    <symbol id="icon-modelling-tech" viewBox="0 0 35 32">
      <path d="M34.664 12.963l-3.121-3.121c-0.414-0.414-0.975-0.646-1.561-0.646h-3.5v-5.518c0-1.828-1.482-3.31-3.31-3.31h-11.034c-1.828 0-3.31 1.482-3.31 3.31v5.517h-3.5c-0.585 0-1.146 0.232-1.561 0.646l-3.121 3.121c-0.414 0.414-0.646 0.975-0.646 1.561v5.706h8.828v-1.103c0-0.61 0.494-1.103 1.103-1.103h2.207c0.61 0 1.103 0.494 1.103 1.103v1.103h8.828v-1.103c0-0.61 0.494-1.103 1.103-1.103h2.207c0.61 0 1.103 0.494 1.103 1.103v1.103h8.828v-5.707c0-0.585-0.232-1.146-0.646-1.56zM22.069 9.195h-8.828v-4.414h8.828v4.414zM26.483 23.54c0 0.61-0.494 1.103-1.103 1.103h-2.207c-0.61 0-1.103-0.494-1.103-1.103v-1.103h-8.828v1.103c0 0.61-0.494 1.103-1.103 1.103h-2.207c-0.61 0-1.103-0.494-1.103-1.103v-1.103h-8.828v6.621c0 1.219 0.988 2.207 2.207 2.207h30.897c1.219 0 2.207-0.988 2.207-2.207v-6.621h-8.828v1.103z"></path>
    </symbol>
    <symbol id="icon-exel-mastery" viewBox="0 0 32 32">
      <path d="M20.444 0h9.896c0.917 0 1.66 0.796 1.66 1.778v13.333h-11.556v-6.222h11.556v-1.778h-11.556v-7.111zM20.444 16.889h11.556v6.222h-11.556v-6.222zM20.444 24.889h11.556v5.333c0 0.982-0.743 1.778-1.66 1.778h-9.896v-7.111zM18.667 24.889v7.111h-9.896c-0.916 0-1.66-0.796-1.66-1.778v-5.333h11.556zM18.667 7.111h-11.556v-5.333c0-0.982 0.743-1.778 1.66-1.778h9.896v7.111zM15.157 8.889v6.222h3.509v-6.222h-3.509zM15.157 16.889v6.222h3.509v-6.222h-3.509zM0 9.778c0-0.236 0.094-0.462 0.26-0.629s0.393-0.26 0.629-0.26h11.696c0.236 0 0.462 0.094 0.629 0.26s0.26 0.393 0.26 0.629v12.445c0 0.236-0.094 0.462-0.26 0.629s-0.393 0.26-0.629 0.26h-11.696c-0.236 0-0.462-0.094-0.629-0.26s-0.26-0.393-0.26-0.629v-12.444zM3.206 11.556h2.009l1.63 3.337 1.724-3.337h1.877l-2.587 4.444 2.645 4.444h-1.98l-1.777-3.493-1.769 3.493h-2.010l2.688-4.46-2.451-4.428z"></path>
    </symbol>
    <symbol id="icon-Property-1Default" viewBox="0 0 32 32">
      <path stroke-linejoin="miter" stroke-linecap="butt" stroke-miterlimit="4" stroke-width="2.5" d="M4 1.25h24c1.519 0 2.75 1.231 2.75 2.75v24c0 1.519-1.231 2.75-2.75 2.75h-24c-1.519 0-2.75-1.231-2.75-2.75v-24c0-1.519 1.231-2.75 2.75-2.75z"></path>
    </symbol>
    <svg id="icon-exel" width="24" height="24" viewBox="0 0 24 24" fill="none" xmlns="http://www.w3.org/2000/svg">
      <path fill-rule="evenodd" clip-rule="evenodd" d="M15.3333 0V5.33333H24V6.66667H15.3333V11.3333H24V1.33333C24 0.596667 23.4427 0 22.7553 0H15.3333ZM15.3333 12.6667H24V17.3333H15.3333V12.6667ZM15.3333 18.6667H24V22.6667C24 23.4033 23.4427 24 22.7553 24H15.3333V18.6667ZM14 18.6667V24H6.578C5.89067 24 5.33333 23.4033 5.33333 22.6667V18.6667H14ZM14 5.33333H5.33333V1.33333C5.33333 0.596667 5.89067 0 6.578 0H14V5.33333ZM11.368 6.66667V11.3333H14V6.66667H11.368ZM11.368 12.6667V17.3333H14V12.6667H11.368ZM0 7.33333C0 7.15652 0.070238 6.98695 0.195262 6.86193C0.320287 6.7369 0.489856 6.66667 0.666667 6.66667H9.43867C9.61548 6.66667 9.78505 6.7369 9.91007 6.86193C10.0351 6.98695 10.1053 7.15652 10.1053 7.33333V16.6667C10.1053 16.8435 10.0351 17.013 9.91007 17.1381C9.78505 17.2631 9.61548 17.3333 9.43867 17.3333H0.666667C0.489856 17.3333 0.320287 17.2631 0.195262 17.1381C0.070238 17.013 0 16.8435 0 16.6667V7.33333ZM2.40467 8.66667H3.91133L5.134 11.1693L6.42667 8.66667H7.83467L5.89467 12L7.87867 15.3333H6.39333L5.06067 12.7133L3.734 15.3333H2.22667L4.24267 11.988L2.40467 8.66667Z" fill="#7D8897"/>
    </svg>




    <!-- Mobile Burger -->


    <!-- Header -->


    <!-- Modal Close -->


    <!-- Logo -->
    
    <symbol id="icon-Logo" viewBox="0 0 32 32">
      <path d="M11.886 1.326c-4.434 1.463-8.137 4.663-9.966 8.686-1.737 3.749-1.691 8.777 0.091 12.571 1.646 3.383 4.206 5.989 7.543 7.543 2.149 1.006 3.2 1.189 6.446 1.189s4.297-0.183 6.4-1.189c11.657-5.486 11.886-21.76 0.411-27.657-1.966-1.006-3.2-1.28-6.126-1.371-2.011-0.091-4.16 0-4.8 0.229zM20.389 2.514c1.234 0.366 2.743 1.097 3.383 1.6l1.143 0.914h-17.829l1.143-0.914c2.789-2.194 7.954-2.88 12.16-1.6zM25.6 16v10.057h-19.2v-20.114h19.2v10.057zM5.486 16.32c0 9.234 0 9.417-0.869 8.64-1.691-1.509-2.971-5.303-2.971-8.777 0-2.743 0.183-3.657 1.463-6.263 0.823-1.691 1.691-3.063 1.966-3.063 0.229 0 0.411 3.886 0.411 9.463zM29.303 10.651c1.92 4.48 0.96 11.703-1.92 14.309-0.869 0.777-0.869 0.594-0.869-8.731s0-9.509 0.869-8.731c0.503 0.457 1.326 1.874 1.92 3.154zM24.914 27.429c-0.183 0.274-1.371 1.051-2.651 1.737-2.057 1.051-2.926 1.234-6.263 1.234s-4.206-0.183-6.263-1.234c-1.28-0.686-2.469-1.463-2.651-1.737-0.183-0.32 2.789-0.457 8.914-0.457s9.097 0.137 8.914 0.457z"></path>
      <path d="M14.674 10.834c-0.457 0.96-2.103 3.84-3.611 6.4l-2.789 4.709h15.451l-2.971-5.166c-1.646-2.789-3.337-5.669-3.749-6.4-0.411-0.686-0.914-1.234-1.097-1.234s-0.731 0.777-1.234 1.691zM19.109 15.863l2.789 4.937-2.971 0.137c-1.6 0.091-4.251 0.091-5.897 0l-2.971-0.137 2.834-4.891c1.6-2.697 3.017-4.937 3.154-4.937s1.509 2.194 3.063 4.891z"></path>
    </symbol>

    <!-- Socials -->


    <!-- Hero btn -->


    <!-- Form Input Icons -->


    <!-- Scroll to top -->


    <!-- SVG Background for Modal -->

   </defs>
</svg>

