<svg xmlns="http://www.w3.org/2000/svg"
     aria-hidden="true"
     style="position:absolute;width:0;height:0;overflow:hidden">
   <defs>



    <!-- Mobile Burger -->


    <!-- Header -->


    <!-- Modal Close -->


    <!-- Logo -->
    
    <symbol id="icon-Logo" viewBox="0 0 32 32">
      <path d="M11.886 1.326c-4.434 1.463-8.137 4.663-9.966 8.686-1.737 3.749-1.691 8.777 0.091 12.571 1.646 3.383 4.206 5.989 7.543 7.543 2.149 1.006 3.2 1.189 6.446 1.189s4.297-0.183 6.4-1.189c11.657-5.486 11.886-21.76 0.411-27.657-1.966-1.006-3.2-1.28-6.126-1.371-2.011-0.091-4.16 0-4.8 0.229zM20.389 2.514c1.234 0.366 2.743 1.097 3.383 1.6l1.143 0.914h-17.829l1.143-0.914c2.789-2.194 7.954-2.88 12.16-1.6zM25.6 16v10.057h-19.2v-20.114h19.2v10.057zM5.486 16.32c0 9.234 0 9.417-0.869 8.64-1.691-1.509-2.971-5.303-2.971-8.777 0-2.743 0.183-3.657 1.463-6.263 0.823-1.691 1.691-3.063 1.966-3.063 0.229 0 0.411 3.886 0.411 9.463zM29.303 10.651c1.92 4.48 0.96 11.703-1.92 14.309-0.869 0.777-0.869 0.594-0.869-8.731s0-9.509 0.869-8.731c0.503 0.457 1.326 1.874 1.92 3.154zM24.914 27.429c-0.183 0.274-1.371 1.051-2.651 1.737-2.057 1.051-2.926 1.234-6.263 1.234s-4.206-0.183-6.263-1.234c-1.28-0.686-2.469-1.463-2.651-1.737-0.183-0.32 2.789-0.457 8.914-0.457s9.097 0.137 8.914 0.457z"></path>
      <path d="M14.674 10.834c-0.457 0.96-2.103 3.84-3.611 6.4l-2.789 4.709h15.451l-2.971-5.166c-1.646-2.789-3.337-5.669-3.749-6.4-0.411-0.686-0.914-1.234-1.097-1.234s-0.731 0.777-1.234 1.691zM19.109 15.863l2.789 4.937-2.971 0.137c-1.6 0.091-4.251 0.091-5.897 0l-2.971-0.137 2.834-4.891c1.6-2.697 3.017-4.937 3.154-4.937s1.509 2.194 3.063 4.891z"></path>
    </symbol>

    <!-- Socials -->


    <!-- Hero btn -->


    <!-- Form Input Icons -->


    <!-- Scroll to top -->


    <!-- SVG Background for Modal -->

   </defs>
</svg>

