<svg width="40" height="40" viewBox="0 0 40 40" fill="none" xmlns="http://www.w3.org/2000/svg">
<path fill-rule="evenodd" clip-rule="evenodd" d="M3.3335 6.11786C3.3335 5.37927 3.6269 4.67094 4.14916 4.14867C4.67142 3.62641 5.37976 3.33301 6.11835 3.33301H33.8789C34.245 3.33241 34.6075 3.40402 34.9458 3.54372C35.2841 3.68342 35.5916 3.88848 35.8505 4.14716C36.1095 4.40583 36.3149 4.71305 36.455 5.05121C36.595 5.38937 36.667 5.75184 36.6668 6.11786V33.8785C36.6672 34.2446 36.5954 34.6071 36.4556 34.9455C36.3157 35.2838 36.1105 35.5912 35.8517 35.8501C35.5929 36.1091 35.2856 36.3145 34.9473 36.4545C34.6091 36.5946 34.2466 36.6665 33.8805 36.6663H6.11835C5.75251 36.6663 5.39025 36.5943 5.05228 36.4542C4.71431 36.3142 4.40724 36.1089 4.14862 35.8501C3.89001 35.5914 3.68491 35.2842 3.54505 34.9462C3.40518 34.6081 3.3333 34.2458 3.3335 33.88V6.11786ZM16.5274 16.0421H21.0411V18.3088C21.6926 17.0057 23.3593 15.833 25.8638 15.833C30.6653 15.833 31.8032 18.4285 31.8032 23.1906V32.0118H26.9441V24.2754C26.9441 21.5633 26.2926 20.033 24.638 20.033C22.3426 20.033 21.388 21.683 21.388 24.2754V32.0118H16.5274V16.0421ZM8.1941 31.8042H13.0547V15.833H8.1941V31.8042ZM13.7502 10.6239C13.7593 11.0401 13.6853 11.4539 13.5323 11.8411C13.3794 12.2282 13.1507 12.5809 12.8596 12.8785C12.5685 13.1761 12.2209 13.4125 11.8372 13.5739C11.4535 13.7353 11.0414 13.8185 10.6252 13.8185C10.2089 13.8185 9.79681 13.7353 9.41311 13.5739C9.02941 13.4125 8.68181 13.1761 8.39072 12.8785C8.09963 12.5809 7.87091 12.2282 7.71798 11.8411C7.56505 11.4539 7.491 11.0401 7.50016 10.6239C7.51815 9.80703 7.85529 9.02966 8.43938 8.45829C9.02348 7.88692 9.80808 7.56698 10.6252 7.56698C11.4422 7.56698 12.2269 7.88692 12.8109 8.45829C13.395 9.02966 13.7322 9.80703 13.7502 10.6239Z" fill="white"/>
</svg>
