<?xml version="1.0" standalone="no"?>
<!DOCTYPE svg PUBLIC "-//W3C//DTD SVG 20010904//EN"
 "http://www.w3.org/TR/2001/REC-SVG-20010904/DTD/svg10.dtd">
<svg version="1.0" xmlns="http://www.w3.org/2000/svg"
 width="70.000000pt" height="70.000000pt" viewBox="0 0 70.000000 70.000000"
 preserveAspectRatio="xMidYMid meet">

<g transform="translate(0.000000,70.000000) scale(0.100000,-0.100000)"
fill="#000000" stroke="none">
<path d="M260 671 c-97 -32 -178 -102 -218 -190 -38 -82 -37 -192 2 -275 36
-74 92 -131 165 -165 47 -22 70 -26 141 -26 71 0 94 4 140 26 255 120 260 476
9 605 -43 22 -70 28 -134 30 -44 2 -91 0 -105 -5z m186 -26 c27 -8 60 -24 74
-35 l25 -20 -195 0 -195 0 25 20 c61 48 174 63 266 35z m114 -295 l0 -220
-210 0 -210 0 0 220 0 220 210 0 210 0 0 -220z m-440 -7 c0 -202 0 -206 -19
-189 -37 33 -65 116 -65 192 0 60 4 80 32 137 18 37 37 67 43 67 5 0 9 -85 9
-207z m521 124 c42 -98 21 -256 -42 -313 -19 -17 -19 -13 -19 191 0 204 0 208
19 191 11 -10 29 -41 42 -69z m-96 -367 c-4 -6 -30 -23 -58 -38 -45 -23 -64
-27 -137 -27 -73 0 -92 4 -137 27 -28 15 -54 32 -58 38 -4 7 61 10 195 10 134
0 199 -3 195 -10z"/>
<path d="M321 463 c-10 -21 -46 -84 -79 -140 l-61 -103 169 0 169 0 -65 113
c-36 61 -73 124 -82 140 -9 15 -20 27 -24 27 -4 0 -16 -17 -27 -37z m97 -110
l61 -108 -65 -3 c-35 -2 -93 -2 -129 0 l-65 3 62 107 c35 59 66 108 69 108 3
0 33 -48 67 -107z"/>
</g>
</svg>
