<svg width="22" height="22" viewBox="0 0 22 22" fill="none" xmlns="http://www.w3.org/2000/svg">
<path d="M20.1276 4.1671L17.4651 1.50744C17.1401 1.18248 16.7051 1 16.2451 1C15.7851 1 15.3501 1.17998 15.0251 1.50744L12.1575 4.36958C11.8325 4.69454 11.65 5.13198 11.65 5.59193C11.65 6.05437 11.83 6.48681 12.1575 6.81427L14.3976 9.05649C13.8873 10.2453 13.1541 11.3255 12.2375 12.2386C11.32 13.161 10.2475 13.8884 9.05753 14.4033L6.81753 12.1611C6.49252 11.8361 6.05752 11.6537 5.59752 11.6537C5.37063 11.6528 5.14585 11.6973 4.93636 11.7844C4.72686 11.8715 4.53687 11.9996 4.37751 12.1611L1.5075 15.0232C1.1825 15.3482 1 15.7857 1 16.2456C1 16.708 1.18 17.1405 1.5075 17.4679L4.16751 20.1276C4.72252 20.6825 5.48752 21 6.27252 21C6.43502 21 6.59252 20.9875 6.75253 20.96C10.0625 20.4151 13.3476 18.6528 16.0001 16.0031C18.6501 13.3485 20.4101 10.0639 20.9601 6.75178C21.1176 5.8119 20.8026 4.84452 20.1276 4.1671ZM19.1876 6.45432C18.7001 9.40145 17.1151 12.3411 14.7276 14.7283C12.34 17.1155 9.40254 18.7003 6.45502 19.1877C6.08502 19.2502 5.70502 19.1252 5.43502 18.8578L2.82251 16.2456L5.59252 13.4734L8.58753 16.4731L8.61003 16.4956L9.15003 16.2956C10.7874 15.6937 12.2742 14.743 13.5075 13.5094C14.7409 12.2758 15.6912 10.7888 16.2926 9.15148L16.4926 8.61155L13.4726 5.59443L16.2426 2.82227L18.8551 5.43445C19.1251 5.70441 19.2501 6.08436 19.1876 6.45432Z" fill="#0E0E0E"/>
</svg>
