<svg width="166" height="166" viewBox="0 0 166 166" fill="none" xmlns="http://www.w3.org/2000/svg">
<path d="M148.689 86.8033C148.734 86.0247 148.884 85.2941 149.14 84.6118C149.408 83.9301 149.721 83.4014 150.08 83.0255L151.053 83.6588C150.743 84.0255 150.463 84.5021 150.212 85.0886C149.974 85.6758 149.836 86.2988 149.798 86.9577C149.746 87.8562 149.846 88.5111 150.098 88.9224C150.363 89.3344 150.729 89.554 151.196 89.581C151.544 89.6011 151.82 89.503 152.025 89.2864C152.241 89.0826 152.407 88.8038 152.524 88.4499C152.652 88.0968 152.766 87.7006 152.863 87.2616C152.961 86.8225 153.07 86.3841 153.192 85.9464C153.313 85.5206 153.473 85.1333 153.674 84.7843C153.886 84.436 154.161 84.1574 154.498 83.9485C154.834 83.7516 155.271 83.6688 155.81 83.7C156.325 83.7299 156.778 83.9004 157.169 84.2115C157.559 84.5226 157.853 84.9603 158.048 85.5245C158.255 86.1015 158.336 86.7913 158.289 87.5939C158.254 88.2049 158.134 88.811 157.931 89.4123C157.74 90.0142 157.501 90.5052 157.215 90.8853L156.223 90.2689C156.535 89.8663 156.764 89.4288 156.912 88.9566C157.071 88.485 157.165 88.0096 157.193 87.5304C157.242 86.6798 157.129 86.0422 156.853 85.6176C156.588 85.2056 156.228 84.9864 155.773 84.96C155.414 84.9392 155.126 85.0307 154.91 85.2345C154.693 85.4504 154.514 85.7345 154.374 86.0869C154.244 86.4521 154.131 86.8482 154.034 87.2753C153.937 87.7144 153.822 88.1465 153.689 88.5715C153.567 89.0092 153.406 89.4025 153.206 89.7515C153.016 90.1132 152.754 90.3925 152.418 90.5894C152.093 90.7989 151.673 90.8888 151.158 90.859C150.607 90.827 150.137 90.6435 149.748 90.3085C149.37 89.9861 149.084 89.5248 148.89 88.9246C148.708 88.337 148.641 87.63 148.689 86.8033Z" fill="black"/>
<path d="M156.708 99.1395C156.547 99.8904 156.26 100.516 155.845 101.016C155.44 101.531 154.911 101.883 154.256 102.074C153.599 102.277 152.824 102.283 151.933 102.091L146.565 100.94L146.833 99.6901L152.078 100.815C153.052 101.024 153.838 100.935 154.436 100.548C155.044 100.175 155.442 99.549 155.631 98.6691C155.772 98.012 155.761 97.4082 155.597 96.8575C155.442 96.3211 155.141 95.8638 154.694 95.4857C154.257 95.1218 153.686 94.8644 152.982 94.7134L148.125 93.6711L148.393 92.4216L161.452 95.2235L161.184 96.473L154.83 95.1098L155.358 94.9654C155.964 95.4022 156.386 95.9836 156.622 96.7094C156.871 97.4378 156.9 98.2478 156.708 99.1395Z" fill="black"/>
<path d="M144.038 107.692C144.384 106.848 144.884 106.164 145.539 105.642C146.201 105.135 146.945 104.824 147.77 104.708C148.607 104.597 149.458 104.719 150.324 105.074C151.201 105.433 151.893 105.944 152.4 106.605C152.907 107.267 153.213 108.008 153.318 108.829C153.422 109.65 153.299 110.488 152.949 111.343C152.594 112.209 152.091 112.898 151.44 113.409C150.785 113.932 150.047 114.245 149.226 114.35C148.401 114.466 147.549 114.344 146.672 113.984C145.806 113.629 145.114 113.119 144.596 112.453C144.084 111.802 143.773 111.059 143.662 110.222C143.562 109.39 143.687 108.547 144.038 107.692ZM145.087 108.122C144.828 108.754 144.737 109.372 144.814 109.974C144.902 110.581 145.145 111.128 145.542 111.615C145.946 112.117 146.486 112.508 147.163 112.785C147.852 113.067 148.511 113.169 149.14 113.089C149.764 113.021 150.316 112.799 150.793 112.424C151.282 112.054 151.654 111.558 151.909 110.936C152.164 110.315 152.247 109.7 152.159 109.093C152.081 108.491 151.846 107.941 151.454 107.443C151.062 106.945 150.521 106.555 149.833 106.273C149.155 105.995 148.497 105.894 147.856 105.969C147.227 106.048 146.668 106.273 146.179 106.643C145.701 107.018 145.337 107.511 145.087 108.122Z" fill="black"/>
<path d="M138.584 118.298C139.019 117.608 139.571 117.084 140.238 116.724C140.915 116.371 141.658 116.216 142.468 116.259C143.282 116.318 144.126 116.623 144.998 117.174C145.871 117.725 146.504 118.351 146.898 119.054C147.302 119.763 147.485 120.496 147.447 121.252C147.41 122.009 147.17 122.737 146.728 123.438C146.248 124.199 145.646 124.77 144.923 125.151C144.204 125.548 143.426 125.724 142.589 125.679C141.762 125.639 140.948 125.367 140.146 124.861C139.334 124.348 138.733 123.728 138.342 122.998C137.951 122.269 137.775 121.491 137.814 120.665C137.847 119.848 138.104 119.059 138.584 118.298ZM138.311 112.358L149.256 119.265L148.602 120.3L146.197 118.782L144.666 117.667L142.956 116.801L137.628 113.439L138.311 112.358ZM139.591 118.828C139.232 119.396 139.039 119.983 139.011 120.59C138.993 121.203 139.134 121.788 139.434 122.347C139.745 122.912 140.209 123.389 140.828 123.78C141.448 124.171 142.074 124.381 142.707 124.412C143.34 124.443 143.93 124.318 144.476 124.038C145.021 123.758 145.474 123.334 145.832 122.766C146.191 122.198 146.382 121.602 146.407 120.979C146.425 120.366 146.284 119.78 145.983 119.222C145.677 118.673 145.214 118.204 144.595 117.813C143.976 117.423 143.348 117.204 142.711 117.156C142.077 117.126 141.488 117.25 140.942 117.53C140.4 117.827 139.95 118.259 139.591 118.828Z" fill="black"/>
<path d="M134.814 137.885C134.257 138.414 133.667 138.769 133.042 138.948C132.418 139.144 131.781 139.136 131.133 138.925C130.476 138.721 129.834 138.289 129.205 137.628L125.423 133.649L126.349 132.769L130.045 136.656C130.731 137.378 131.43 137.748 132.143 137.766C132.855 137.802 133.537 137.509 134.19 136.889C134.677 136.426 135.008 135.921 135.183 135.374C135.358 134.844 135.368 134.297 135.212 133.732C135.057 133.185 134.731 132.651 134.235 132.129L130.812 128.528L131.738 127.648L138.249 134.497L137.362 135.34L135.576 133.462L136.054 133.677C136.308 134.38 136.328 135.098 136.114 135.831C135.908 136.572 135.475 137.257 134.814 137.885Z" fill="black"/>
<path d="M119.632 137.736C120.39 137.229 121.187 136.943 122.022 136.875C122.855 136.825 123.645 136.983 124.394 137.348C125.15 137.724 125.788 138.301 126.308 139.079C126.834 139.868 127.123 140.678 127.173 141.51C127.224 142.342 127.063 143.127 126.69 143.866C126.318 144.605 125.748 145.231 124.979 145.744C124.201 146.264 123.399 146.554 122.573 146.615C121.738 146.682 120.951 146.529 120.212 146.157C119.462 145.791 118.825 145.214 118.298 144.426C117.778 143.647 117.49 142.837 117.433 141.995C117.372 141.17 117.53 140.379 117.905 139.624C118.288 138.878 118.863 138.249 119.632 137.736ZM120.261 138.679C119.692 139.058 119.272 139.52 118.999 140.062C118.733 140.615 118.629 141.204 118.686 141.83C118.74 142.472 118.97 143.097 119.376 143.706C119.789 144.325 120.279 144.777 120.845 145.063C121.401 145.356 121.982 145.48 122.587 145.436C123.2 145.403 123.786 145.199 124.344 144.826C124.903 144.453 125.316 143.99 125.582 143.438C125.854 142.895 125.967 142.308 125.92 141.675C125.873 141.043 125.643 140.418 125.23 139.799C124.823 139.19 124.334 138.738 123.761 138.442C123.195 138.156 122.606 138.03 121.993 138.064C121.388 138.107 120.81 138.312 120.261 138.679Z" fill="black"/>
<path d="M112.033 142.379L118.942 149.746L117.812 150.214L111.463 143.355L111.979 143.142L112.257 152.515L111.243 152.935L104.844 146.097L105.36 145.883L105.671 155.242L104.59 155.69L104.283 145.589L105.397 145.127L111.479 151.531L111.13 151.676L110.919 142.841L112.033 142.379Z" fill="black"/>
<path d="M92.8469 148.134C93.6186 148.02 94.3644 148.019 95.0845 148.131C95.8063 148.255 96.3876 148.455 96.8284 148.729L96.4055 149.811C95.9836 149.582 95.4601 149.404 94.8351 149.278C94.2117 149.164 93.5736 149.154 92.9206 149.251C92.0302 149.382 91.4093 149.613 91.0578 149.944C90.708 150.286 90.5673 150.689 90.6355 151.152C90.6863 151.497 90.8384 151.747 91.092 151.904C91.3354 152.074 91.6422 152.18 92.0124 152.223C92.3843 152.277 92.7951 152.308 93.2449 152.314C93.6946 152.321 94.1462 152.339 94.5994 152.369C95.0408 152.401 95.4527 152.48 95.8351 152.606C96.2192 152.743 96.5477 152.955 96.8206 153.243C97.0815 153.532 97.2514 153.943 97.3301 154.478C97.4054 154.988 97.3303 155.466 97.1049 155.912C96.8795 156.357 96.5103 156.733 95.9975 157.039C95.4745 157.359 94.8153 157.577 94.0199 157.695C93.4145 157.784 92.7967 157.79 92.1668 157.713C91.5386 157.648 91.0093 157.514 90.5791 157.31L90.9815 156.214C91.439 156.438 91.9139 156.574 92.4063 156.622C92.9004 156.683 93.3849 156.678 93.8598 156.608C94.7027 156.484 95.3041 156.244 95.6639 155.888C96.0137 155.545 96.1553 155.148 96.0888 154.697C96.0363 154.341 95.8883 154.078 95.6449 153.907C95.3896 153.739 95.0751 153.621 94.7014 153.555C94.3177 153.502 93.9068 153.472 93.469 153.464C93.0192 153.457 92.5728 153.432 92.1296 153.388C91.6764 153.358 91.2585 153.28 90.8761 153.155C90.4836 153.043 90.1569 152.842 89.8959 152.553C89.6248 152.278 89.4517 151.885 89.3764 151.374C89.2959 150.828 89.3802 150.33 89.6294 149.881C89.8684 149.446 90.2622 149.072 90.8107 148.761C91.349 148.463 92.0277 148.254 92.8469 148.134Z" fill="black"/>
<path d="M82.194 158.489C81.426 158.483 80.7552 158.328 80.1815 158.024C79.5958 157.731 79.1432 157.284 78.8238 156.681C78.4925 156.079 78.3303 155.321 78.3374 154.409L78.3798 148.92L79.6577 148.929L79.6163 154.293C79.6086 155.289 79.8548 156.041 80.3549 156.549C80.8429 157.069 81.5369 157.332 82.4369 157.339C83.1089 157.344 83.6979 157.211 84.204 156.939C84.698 156.679 85.085 156.291 85.365 155.778C85.6329 155.276 85.7696 154.665 85.7752 153.945L85.8135 148.977L87.0915 148.987L86.9884 162.342L85.7104 162.332L85.7606 155.835L86.0088 156.323C85.7036 157.004 85.2194 157.535 84.5565 157.913C83.8935 158.304 83.106 158.496 82.194 158.489Z" fill="black"/>
<path d="M71.3784 147.841C72.2756 148.005 73.0475 148.353 73.6942 148.886C74.3269 149.429 74.7851 150.092 75.0687 150.876C75.3502 151.671 75.4068 152.529 75.2384 153.45C75.0679 154.383 74.7113 155.165 74.1687 155.798C73.626 156.431 72.9638 156.883 72.1822 157.155C71.4005 157.427 70.5553 157.48 69.6463 157.314C68.7256 157.145 67.9478 156.796 67.3129 156.265C66.6662 155.732 66.2069 155.075 65.9351 154.293C65.6514 153.509 65.5949 152.651 65.7654 151.719C65.9337 150.798 66.2903 150.015 66.8351 149.371C67.366 148.736 68.0292 148.278 68.8248 147.996C69.6183 147.726 70.4695 147.675 71.3784 147.841ZM71.1745 148.956C70.5016 148.833 69.8785 148.872 69.3052 149.072C68.7296 149.284 68.2447 149.634 67.8503 150.123C67.4419 150.622 67.1719 151.232 67.0403 151.952C66.9064 152.683 66.9433 153.349 67.151 153.948C67.3468 154.545 67.6774 155.038 68.1429 155.429C68.6061 155.83 69.1683 156.092 69.8293 156.213C70.4904 156.333 71.1087 156.288 71.6842 156.076C72.2575 155.876 72.7473 155.532 73.1535 155.045C73.5597 154.558 73.8297 153.949 73.9635 153.217C74.0952 152.497 74.0583 151.832 73.8528 151.221C73.6452 150.622 73.3097 150.121 72.8465 149.719C72.381 149.329 71.8237 149.075 71.1745 148.956Z" fill="black"/>
<path d="M59.8818 144.687C60.6468 144.971 61.2741 145.402 61.7635 145.98C62.2487 146.57 62.5539 147.265 62.6789 148.067C62.7885 148.875 62.6638 149.763 62.3048 150.731C61.9459 151.698 61.4632 152.447 60.8569 152.978C60.2465 153.519 59.5671 153.849 58.8189 153.969C58.0707 154.088 57.3085 154.004 56.5321 153.716C55.6883 153.403 55.0054 152.932 54.4835 152.303C53.9462 151.682 53.6136 150.957 53.4857 150.128C53.3536 149.312 53.4524 148.459 53.7822 147.57C54.1161 146.67 54.5995 145.953 55.2325 145.42C55.8655 144.887 56.5905 144.554 57.4074 144.422C58.2132 144.286 59.0379 144.374 59.8818 144.687ZM65.6386 143.194L61.137 155.328L59.9894 154.902L60.9786 152.236L61.7542 150.507L62.2491 148.656L64.4404 142.749L65.6386 143.194ZM59.5717 145.782C58.9416 145.548 58.3269 145.48 57.7275 145.577C57.124 145.686 56.5799 145.945 56.0954 146.354C55.6067 146.775 55.235 147.328 54.9804 148.014C54.7258 148.701 54.6487 149.357 54.7493 149.983C54.8498 150.609 55.0933 151.16 55.4798 151.636C55.8663 152.112 56.3746 152.467 57.0047 152.701C57.6348 152.934 58.2572 152.999 58.872 152.894C59.4756 152.785 60.0196 152.526 60.5042 152.117C60.9775 151.704 61.3414 151.154 61.596 150.468C61.8506 149.782 61.9354 149.122 61.8503 148.489C61.7498 147.863 61.5062 147.312 61.1197 146.836C60.7178 146.367 60.2018 146.015 59.5717 145.782Z" fill="black"/>
<path d="M39.9277 144.989C39.2969 144.551 38.8304 144.044 38.5284 143.469C38.2097 142.897 38.0884 142.273 38.1645 141.595C38.2308 140.911 38.524 140.194 39.0443 139.445L42.1759 134.936L43.2257 135.665L40.1659 140.07C39.5978 140.888 39.3769 141.648 39.5034 142.349C39.6132 143.054 40.0378 143.663 40.7771 144.176C41.3291 144.559 41.8908 144.781 42.4622 144.842C43.0169 144.906 43.5548 144.804 44.0759 144.538C44.5802 144.275 45.0378 143.847 45.4485 143.256L48.2824 139.175L49.3321 139.904L43.9416 147.666L42.9362 146.968L44.4147 144.839L44.3001 145.351C43.6635 145.742 42.9646 145.907 42.2035 145.846C41.4354 145.795 40.6768 145.509 39.9277 144.989Z" fill="black"/>
<path d="M37.0145 130.119C37.6641 130.759 38.1064 131.481 38.3413 132.285C38.5593 133.09 38.5652 133.896 38.3589 134.703C38.1442 135.519 37.7083 136.261 37.0512 136.927C36.3857 137.603 35.6507 138.049 34.8461 138.267C34.0415 138.485 33.2396 138.487 32.4403 138.272C31.6411 138.057 30.9124 137.625 30.2542 136.977C29.5875 136.32 29.141 135.593 28.9146 134.797C28.6796 133.993 28.6695 133.191 28.8844 132.392C29.0906 131.585 29.5265 130.843 30.192 130.168C30.8491 129.502 31.5841 129.055 32.3972 128.828C33.1932 128.602 33.9994 128.596 34.8156 128.811C35.6234 129.034 36.3563 129.47 37.0145 130.119ZM36.2184 130.926C35.7312 130.446 35.1943 130.128 34.6076 129.971C34.0125 129.822 33.4144 129.839 32.8132 130.022C32.195 130.204 31.629 130.556 31.1151 131.078C30.5928 131.608 30.2491 132.179 30.0838 132.791C29.91 133.394 29.9058 133.988 30.0713 134.573C30.2283 135.165 30.5462 135.698 31.0248 136.169C31.5035 136.641 32.0404 136.951 32.6355 137.099C33.2222 137.256 33.8204 137.248 34.4301 137.074C35.0398 136.9 35.6058 136.548 36.1281 136.018C36.642 135.496 36.9858 134.925 37.1595 134.305C37.3247 133.693 37.3289 133.09 37.1718 132.497C37.0063 131.913 36.6885 131.389 36.2184 130.926Z" fill="black"/>
<path d="M30.9419 123.662L25.1518 131.937L24.461 130.927L29.8693 123.305L30.1842 123.766L21.0678 125.964L20.4481 125.057L25.8259 117.392L26.1408 117.852L17.0447 120.08L16.3844 119.114L26.2077 116.738L26.8884 117.734L21.8704 125.001L21.6571 124.689L30.2613 122.667L30.9419 123.662Z" fill="black"/>
<path d="M21.3518 106.085C21.6231 106.816 21.7786 107.545 21.8181 108.273C21.8464 109.005 21.772 109.615 21.5947 110.103L20.4492 109.913C20.5857 109.453 20.6508 108.904 20.6446 108.267C20.6272 107.633 20.5037 107.007 20.2741 106.388C19.9611 105.545 19.6063 104.985 19.2098 104.71C18.802 104.439 18.3788 104.384 17.94 104.547C17.6137 104.668 17.4002 104.869 17.2995 105.149C17.1833 105.423 17.1429 105.745 17.1781 106.116C17.202 106.491 17.2575 106.899 17.3444 107.341C17.4314 107.782 17.507 108.227 17.5715 108.677C17.6317 109.115 17.6401 109.535 17.5965 109.935C17.5417 110.339 17.4021 110.704 17.1776 111.031C16.949 111.346 16.5815 111.598 16.0752 111.785C15.5914 111.965 15.1082 111.99 14.6254 111.862C14.1427 111.734 13.6985 111.451 13.2927 111.013C12.8715 110.567 12.5211 109.968 12.2414 109.214C12.0286 108.64 11.8944 108.037 11.8391 107.405C11.7725 106.777 11.7941 106.231 11.9038 105.768L13.0599 105.935C12.936 106.429 12.9012 106.922 12.9557 107.413C12.9989 107.909 13.1039 108.382 13.2709 108.832C13.5673 109.631 13.927 110.17 14.3502 110.448C14.758 110.719 15.1756 110.775 15.6032 110.617C15.9407 110.491 16.1675 110.292 16.2837 110.019C16.3956 109.734 16.4453 109.402 16.4326 109.023C16.4044 108.636 16.349 108.228 16.2662 107.798C16.1793 107.357 16.1113 106.915 16.0623 106.472C15.9979 106.023 15.9875 105.598 16.031 105.198C16.0591 104.79 16.1875 104.429 16.4162 104.114C16.6294 103.792 16.9779 103.541 17.4617 103.361C17.9792 103.169 18.4835 103.149 18.9746 103.299C19.4502 103.443 19.8972 103.751 20.3155 104.223C20.7184 104.688 21.0638 105.308 21.3518 106.085Z" fill="black"/>
<path d="M9.07056 98.0223C8.91801 97.2696 8.93155 96.5812 9.11116 95.9571C9.27663 95.3236 9.62121 94.7885 10.1449 94.3518C10.6662 93.9034 11.3738 93.5886 12.2676 93.4075L17.6483 92.3173L17.9021 93.5698L12.645 94.635C11.6688 94.8328 10.9838 95.2287 10.5899 95.8227C10.1819 96.4074 10.0673 97.1408 10.2461 98.0228C10.3796 98.6814 10.6316 99.2303 11.0022 99.6695C11.3587 100.099 11.8172 100.398 12.3778 100.566C12.9242 100.725 13.5502 100.733 14.2559 100.59L19.1249 99.6032L19.3788 100.856L6.28876 103.508L6.03491 102.255L12.4035 100.965L11.9772 101.309C11.2473 101.15 10.6286 100.786 10.1211 100.215C9.6019 99.6471 9.25172 98.9161 9.07056 98.0223Z" fill="black"/>
<path d="M17.2548 85.2585C17.2794 86.1702 17.0977 86.9974 16.7096 87.7401C16.3092 88.4712 15.7549 89.0564 15.0465 89.4957C14.3261 89.9353 13.4981 90.1678 12.5624 90.193C11.6147 90.2186 10.7754 90.0312 10.0443 89.6308C9.3132 89.2304 8.73401 88.6759 8.3067 87.9672C7.8794 87.2585 7.65326 86.4423 7.6283 85.5186C7.60301 84.5829 7.78456 83.7497 8.17296 83.019C8.56103 82.2762 9.10943 81.6912 9.81814 81.2639C10.5265 80.8246 11.3546 80.5922 12.3022 80.5666C13.2379 80.5413 14.0772 80.7287 14.8203 81.1287C15.5511 81.5171 16.1363 82.0715 16.5759 82.7919C17.0035 83.5126 17.2298 84.3348 17.2548 85.2585ZM16.1212 85.2891C16.1027 84.6054 15.9364 84.0036 15.6222 83.4839C15.2961 82.9646 14.8531 82.5624 14.2932 82.2774C13.7209 81.9807 13.069 81.8423 12.3372 81.8621C11.5935 81.8822 10.9499 82.0556 10.4066 82.3824C9.86288 82.6972 9.44822 83.1226 9.1626 83.6585C8.86498 84.1947 8.72525 84.7987 8.7434 85.4705C8.76156 86.1422 8.93371 86.7378 9.25987 87.2572C9.57402 87.7769 10.0112 88.1852 10.5714 88.4822C11.1317 88.7792 11.7837 88.9176 12.5274 88.8975C13.2591 88.8777 13.9027 88.7043 14.458 88.3772C15.0014 88.0504 15.4219 87.6189 15.7195 87.0826C16.0051 86.5467 16.139 85.9489 16.1212 85.2891Z" fill="black"/>
<path d="M17.95 73.2661C17.8308 74.0733 17.539 74.7763 17.0746 75.3751C16.5983 75.9721 15.981 76.415 15.2227 76.7036C14.4543 76.9787 13.5595 77.0411 12.5385 76.8908C11.5175 76.7406 10.6848 76.424 10.0405 75.941C9.38424 75.4563 8.9203 74.8604 8.64867 74.1533C8.37704 73.4462 8.30169 72.6831 8.42263 71.864C8.55409 70.9737 8.87335 70.208 9.38042 69.567C9.87736 68.9124 10.5177 68.4365 11.3015 68.1395C12.0735 67.8407 12.9284 67.7603 13.8663 67.8983C14.816 68.0381 15.6173 68.3622 16.27 68.8707C16.9227 69.3791 17.3984 70.0192 17.6968 70.7909C17.9971 71.5507 18.0815 72.3757 17.95 73.2661ZM20.6033 78.5871L7.79917 76.7028L7.97795 75.4919L10.7917 75.906L12.6431 76.3058L14.5571 76.4055L20.7899 77.3228L20.6033 78.5871ZM16.815 73.19C16.9131 72.5252 16.8523 71.9098 16.6327 71.3438C16.4011 70.776 16.0351 70.2977 15.5345 69.9086C15.0221 69.5179 14.4038 69.2692 13.6796 69.1626C12.9554 69.056 12.2974 69.1169 11.7058 69.3452C11.1141 69.5735 10.6253 69.9261 10.2395 70.403C9.85373 70.8799 9.61175 71.4507 9.51359 72.1155C9.41544 72.7803 9.48126 73.4025 9.71106 73.9822C9.94262 74.5499 10.3087 75.0283 10.8092 75.4174C11.3115 75.7945 11.9248 76.0364 12.649 76.1429C13.3732 76.2495 14.0362 76.1955 14.638 75.9808C15.2297 75.7525 15.7184 75.3999 16.1042 74.923C16.4799 74.4325 16.7168 73.8548 16.815 73.19Z" fill="black"/>
<path d="M13.5559 53.6515C13.8551 52.9442 14.255 52.3837 14.7557 51.9701C15.2501 51.5407 15.8367 51.2937 16.5155 51.229C17.199 51.1533 17.9608 51.293 18.8008 51.6482L23.8572 53.7866L23.3593 54.9636L18.4189 52.8743C17.5016 52.4864 16.7126 52.4263 16.0521 52.6942C15.3851 52.9463 14.8763 53.4869 14.5257 54.3157C14.2639 54.9346 14.1619 55.5299 14.2198 56.1016C14.2712 56.6576 14.4808 57.1631 14.8485 57.6183C15.2099 58.0578 15.7221 58.4177 16.3853 58.6982L20.9609 60.6332L20.463 61.8102L11.7593 58.1294L12.2362 57.0021L14.6235 58.0117L14.0987 58.0048C13.5856 57.4621 13.2808 56.812 13.1843 56.0546C13.0767 55.2925 13.2005 54.4915 13.5559 53.6515Z" fill="black"/>
<path d="M27.505 47.7591C27.0097 48.525 26.392 49.1044 25.6519 49.4976C24.9082 49.8741 24.12 50.0433 23.2873 50.005C22.4445 49.9603 21.6301 49.6838 20.844 49.1756C20.0479 48.6609 19.4616 48.0318 19.085 47.2882C18.7085 46.5446 18.5444 45.7597 18.5928 44.9336C18.6411 44.1075 18.9162 43.3065 19.418 42.5306C19.9263 41.7447 20.5472 41.1602 21.2808 40.7771C22.021 40.384 22.8041 40.2115 23.6303 40.2599C24.4631 40.2981 25.2775 40.5746 26.0736 41.0893C26.8596 41.5975 27.4459 42.2266 27.8326 42.9767C28.2156 43.7102 28.3848 44.4984 28.34 45.341C28.2851 46.1772 28.0067 46.9833 27.505 47.7591ZM26.5527 47.1435C26.9241 46.5691 27.1272 45.9788 27.162 45.3726C27.1868 44.7598 27.0488 44.1776 26.7482 43.626C26.444 43.0578 25.9845 42.575 25.3698 42.1775C24.745 41.7736 24.1161 41.5528 23.4831 41.515C22.8567 41.4672 22.2741 41.5836 21.7354 41.8641C21.1867 42.138 20.7299 42.5572 20.3649 43.1214C20 43.6857 19.8052 44.2742 19.7805 44.887C19.7457 45.4932 19.8753 46.0772 20.1694 46.6389C20.4636 47.2006 20.923 47.6834 21.5478 48.0874C22.1625 48.4848 22.7914 48.7056 23.4345 48.7499C24.0675 48.7876 24.6583 48.6694 25.2071 48.3955C25.7457 48.115 26.1943 47.6977 26.5527 47.1435Z" fill="black"/>
<path d="M32.5631 40.5066L23.2861 36.5127L24.1358 35.6317L32.6954 39.3841L32.3081 39.7857L28.3093 31.3044L29.0715 30.514L37.6687 34.2275L37.2813 34.6291L33.2575 26.1737L34.0697 25.3316L38.386 34.4691L37.5488 35.3371L29.4149 31.8953L29.6773 31.6232L33.4003 39.6386L32.5631 40.5066Z" fill="black"/>
<path d="M47.6584 27.6061C46.9987 28.0223 46.317 28.3249 45.6131 28.5136C44.9027 28.6923 44.2905 28.7452 43.7762 28.6724L43.7253 27.5126C44.2038 27.5512 44.7544 27.5017 45.3771 27.3642C45.9934 27.2165 46.5806 26.9666 47.1388 26.6143C47.8999 26.134 48.3743 25.6715 48.5618 25.2268C48.743 24.7719 48.7087 24.3466 48.4589 23.9509C48.2731 23.6566 48.0326 23.4891 47.7373 23.4484C47.4458 23.3912 47.1221 23.418 46.7664 23.529C46.4043 23.6298 46.0163 23.7682 45.6024 23.9442C45.1885 24.1203 44.7682 24.2862 44.3414 24.442C43.9248 24.5914 43.5163 24.686 43.1158 24.7259C42.7088 24.7557 42.3225 24.6944 41.9567 24.5421C41.6011 24.3834 41.2792 24.0757 40.9909 23.619C40.7155 23.1827 40.5907 22.7152 40.6165 22.2165C40.6423 21.7177 40.8277 21.2247 41.1728 20.7373C41.5217 20.2334 42.0361 19.7669 42.716 19.3378C43.2336 19.0112 43.796 18.7556 44.4033 18.5711C45.0041 18.3764 45.5424 18.285 46.0182 18.2969L46.094 19.4623C45.5851 19.4429 45.0956 19.5106 44.6256 19.6653C44.1492 19.8098 43.7081 20.0101 43.3021 20.2663C42.5816 20.721 42.1289 21.184 41.944 21.6555C41.7628 22.1103 41.7939 22.5306 42.0373 22.9162C42.2295 23.2206 42.4713 23.4014 42.7629 23.4587C43.0646 23.5095 43.3997 23.4896 43.7682 23.399C44.1404 23.2918 44.5285 23.1533 44.9322 22.9837C45.3461 22.8076 45.7646 22.65 46.1876 22.5108C46.6143 22.355 47.0279 22.2572 47.4285 22.2173C47.8328 22.1608 48.2127 22.2119 48.5683 22.3706C48.9277 22.5128 49.2451 22.8021 49.5205 23.2384C49.8151 23.7052 49.9394 24.1943 49.8933 24.7059C49.851 25.2008 49.642 25.7016 49.2665 26.2082C48.8946 26.6983 48.3586 27.1642 47.6584 27.6061Z" fill="black"/>
<path d="M53.2032 13.8037C53.9083 13.4993 54.5847 13.3707 55.2325 13.4178C55.8865 13.4491 56.4812 13.676 57.0165 14.0984C57.5629 14.516 58.0168 15.1435 58.3784 15.9807L60.555 21.0208L59.3817 21.5274L57.255 16.603C56.8602 15.6886 56.3315 15.0999 55.6689 14.837C55.0126 14.5583 54.2714 14.5973 53.4451 14.9541C52.8281 15.2204 52.343 15.5802 51.9897 16.0333C51.6427 16.4707 51.4447 16.981 51.3959 17.5641C51.3534 18.1314 51.4748 18.7456 51.7603 19.4066L53.7299 23.9674L52.5566 24.474L47.2614 12.2125L48.4347 11.706L51.011 17.6715L50.5869 17.3252C50.5912 16.5783 50.8201 15.8978 51.2738 15.2837C51.7228 14.6585 52.3659 14.1652 53.2032 13.8037Z" fill="black"/>
<path d="M67.1818 19.228C66.2947 19.4396 65.4478 19.432 64.641 19.205C63.8432 18.9636 63.1564 18.5414 62.5808 17.9386C62.0023 17.324 61.6044 16.5616 61.3872 15.6511C61.1671 14.729 61.1778 13.8691 61.4192 13.0713C61.6605 12.2735 62.0841 11.5926 62.6897 11.0286C63.2953 10.4647 64.0475 10.0755 64.9463 9.86106C65.8567 9.64383 66.7095 9.6501 67.5045 9.87986C68.3113 10.1068 68.9966 10.5232 69.5606 11.1288C70.1363 11.7317 70.5342 12.4941 70.7542 13.4162C70.9715 14.3267 70.9609 15.1866 70.7222 15.9961C70.4925 16.7911 70.0704 17.4778 69.4559 18.0562C68.8386 18.623 68.0805 19.0136 67.1818 19.228ZM66.9185 18.125C67.5839 17.9662 68.1385 17.6797 68.5824 17.2654C69.0236 16.8393 69.326 16.3231 69.4897 15.7165C69.6622 15.0955 69.6635 14.429 69.4936 13.717C69.3209 12.9933 69.0187 12.3992 68.5871 11.9347C68.1672 11.4674 67.6656 11.1491 67.0824 10.9799C66.4964 10.7989 65.8765 10.7864 65.2229 10.9424C64.5692 11.0983 64.0218 11.3893 63.5807 11.8153C63.1367 12.2297 62.8271 12.7415 62.6517 13.3508C62.4764 13.9602 62.4751 14.6267 62.6478 15.3504C62.8177 16.0624 63.1199 16.6565 63.5543 17.1326C63.9859 17.5972 64.4947 17.9199 65.0807 18.1008C65.6639 18.2701 66.2765 18.2781 66.9185 18.125Z" fill="black"/>
<path d="M78.8082 17.4474C77.9938 17.4977 77.2457 17.3576 76.564 17.027C75.8816 16.6845 75.3209 16.1721 74.882 15.4899C74.4543 14.7949 74.2086 13.9324 74.1449 12.9024C74.0812 11.8724 74.2192 10.9922 74.5588 10.2618C74.8976 9.51953 75.3849 8.94237 76.0207 8.53037C76.6565 8.11836 77.3876 7.88683 78.2141 7.83575C79.1123 7.78024 79.9274 7.93425 80.6592 8.2978C81.4023 8.64864 82 9.17677 82.4524 9.88221C82.904 10.5757 83.1591 11.3955 83.2176 12.3417C83.2768 13.2999 83.1251 14.1508 82.7623 14.8946C82.3995 15.6384 81.8713 16.2362 81.1779 16.6878C80.4964 17.1387 79.7065 17.3919 78.8082 17.4474ZM74.1494 21.1438L73.3509 8.22647L74.5726 8.15097L74.748 10.9896L74.7389 12.8837L75.0363 14.777L75.425 21.065L74.1494 21.1438ZM78.6484 16.3211C79.3192 16.2797 79.9088 16.0929 80.4172 15.7609C80.925 15.417 81.3175 14.9599 81.5949 14.3897C81.8715 13.8075 81.9872 13.1511 81.942 12.4205C81.8969 11.6899 81.7016 11.0588 81.3561 10.5271C81.0106 9.99536 80.5648 9.59009 80.0185 9.31125C79.4723 9.03242 78.8638 8.91373 78.1931 8.95518C77.5224 8.99663 76.9271 9.18971 76.4074 9.53443C75.8997 9.8784 75.5071 10.3355 75.2298 10.9057C74.9644 11.4751 74.8543 12.1252 74.8995 12.8558C74.9446 13.5864 75.1343 14.2239 75.4686 14.7683C75.814 15.3 76.2599 15.7053 76.8061 15.9841C77.3636 16.2502 77.9777 16.3626 78.6484 16.3211Z" fill="black"/>
<path d="M97.5281 9.08356C98.282 9.23031 98.9129 9.50595 99.421 9.91049C99.9431 10.3055 100.306 10.8285 100.509 11.4793C100.724 12.1325 100.745 12.9066 100.57 13.8018L99.521 19.1906L98.2666 18.9464L99.2918 13.6813C99.4822 12.7037 99.3782 11.9193 98.9798 11.3283C98.5955 10.7278 97.9617 10.3416 97.0782 10.1696C96.4186 10.0412 95.8151 10.0643 95.2676 10.2389C94.7342 10.404 94.2827 10.7134 93.9132 11.1672C93.5577 11.6115 93.3112 12.1869 93.1736 12.8937L92.224 17.7701L90.9696 17.5259L92.7758 8.2501L93.9772 8.48399L93.4818 11.0282L93.3804 10.5133C93.8056 9.89926 94.3788 9.46683 95.1 9.21602C95.8236 8.95344 96.6329 8.90928 97.5281 9.08356Z" fill="black"/>
<path d="M106.118 21.4859C105.267 21.1591 104.572 20.6742 104.035 20.031C103.513 19.381 103.185 18.6446 103.051 17.822C102.922 16.9881 103.024 16.1343 103.36 15.2604C103.699 14.3754 104.194 13.672 104.845 13.1503C105.495 12.6286 106.229 12.3063 107.047 12.1833C107.866 12.0604 108.706 12.1645 109.569 12.4955C110.443 12.8309 111.143 13.318 111.669 13.9568C112.206 14.6 112.536 15.3307 112.659 16.1491C112.793 16.9717 112.69 17.8256 112.35 18.7106C112.015 19.5845 111.52 20.2878 110.866 20.8207C110.227 21.3467 109.49 21.6747 108.656 21.8045C107.827 21.9231 106.981 21.8169 106.118 21.4859ZM106.524 20.4272C107.163 20.6723 107.782 20.7494 108.383 20.6585C108.988 20.5563 109.529 20.3014 110.007 19.8935C110.5 19.4788 110.878 18.9297 111.141 18.2463C111.407 17.5517 111.494 16.8909 111.4 16.2637C111.318 15.6409 111.084 15.0949 110.699 14.6256C110.318 14.1452 109.813 13.7846 109.186 13.5438C108.558 13.3031 107.942 13.2337 107.338 13.3358C106.737 13.4268 106.192 13.674 105.703 14.0775C105.214 14.4811 104.836 15.0302 104.57 15.7247C104.307 16.4081 104.221 17.069 104.31 17.7073C104.403 18.3344 104.641 18.8882 105.022 19.3687C105.407 19.8379 105.908 20.1908 106.524 20.4272Z" fill="black"/>
<path d="M114.465 25.0457L116.495 15.1525L117.53 15.8057L115.591 24.9476L115.119 24.6498L122.615 19.0141L123.543 19.6001L121.65 28.7707L121.178 28.473L128.643 22.8181L129.632 23.4425L121.559 29.5221L120.539 28.8785L122.26 20.2164L122.58 20.4182L115.485 25.6893L114.465 25.0457Z" fill="black"/>
<path d="M130.179 37.2443C129.637 36.6828 129.202 36.0767 128.875 35.4258C128.556 34.7665 128.38 34.1778 128.347 33.6596L129.472 33.3745C129.532 33.8508 129.692 34.3798 129.953 34.9616C130.222 35.5351 130.586 36.0594 131.044 36.5344C131.669 37.1822 132.218 37.5529 132.692 37.6463C133.174 37.7315 133.584 37.6116 133.921 37.2868C134.171 37.0452 134.286 36.7758 134.266 36.4784C134.263 36.1813 134.171 35.8699 133.991 35.5442C133.818 35.2101 133.604 34.8583 133.348 34.4887C133.091 34.1191 132.844 33.7413 132.604 33.355C132.374 32.9775 132.198 32.5966 132.078 32.2126C131.966 31.8202 131.948 31.4295 132.023 31.0405C132.106 30.6601 132.342 30.2825 132.731 29.9077C133.102 29.5496 133.535 29.3326 134.028 29.2567C134.522 29.1808 135.042 29.2624 135.59 29.5014C136.154 29.7408 136.715 30.1499 137.273 30.7286C137.698 31.1691 138.063 31.6679 138.367 32.225C138.679 32.7738 138.878 33.2823 138.963 33.7506L137.837 34.0611C137.752 33.5589 137.587 33.0934 137.34 32.6646C137.102 32.2275 136.816 31.8362 136.483 31.4907C135.892 30.8774 135.346 30.5281 134.847 30.4426C134.365 30.3575 133.96 30.4732 133.631 30.7897C133.372 31.0396 133.244 31.313 133.247 31.6101C133.259 31.9158 133.346 32.2399 133.51 32.5823C133.69 32.925 133.904 33.2768 134.152 33.6377C134.409 34.0073 134.648 34.385 134.87 34.7709C135.109 35.1572 135.289 35.5423 135.409 35.9264C135.547 36.3107 135.574 36.6931 135.49 37.0735C135.424 37.4541 135.205 37.8235 134.834 38.1817C134.436 38.5648 133.983 38.7857 133.472 38.8443C132.979 38.9033 132.446 38.8002 131.874 38.5352C131.318 38.2706 130.753 37.8402 130.179 37.2443Z" fill="black"/>
<path d="M144.718 39.7377C145.161 40.3653 145.426 41.0008 145.512 41.6444C145.616 42.2909 145.516 42.9194 145.212 43.5299C144.916 44.1503 144.395 44.7233 143.649 45.2489L139.163 48.4128L138.426 47.3685L142.81 44.2771C143.624 43.7031 144.091 43.065 144.213 42.3627C144.351 41.6633 144.161 40.9458 143.642 40.2104C143.254 39.6613 142.803 39.2603 142.287 39.0075C141.787 38.7576 141.247 38.6686 140.666 38.7405C140.102 38.8152 139.526 39.06 138.938 39.475L134.878 42.3381L134.141 41.2938L145.056 33.5965L145.793 34.6409L140.482 38.3857L140.734 37.8997C141.466 37.7507 142.179 37.8352 142.874 38.1532C143.578 38.4643 144.192 38.9924 144.718 39.7377Z" fill="black"/>
<path d="M142.357 54.6758C141.967 53.8512 141.801 53.0208 141.857 52.1847C141.929 51.3543 142.201 50.5956 142.673 49.9084C143.156 49.2161 143.82 48.6702 144.667 48.2706C145.524 47.8659 146.368 47.6997 147.198 47.7721C148.029 47.8446 148.782 48.1192 149.459 48.5961C150.135 49.073 150.67 49.7292 151.065 50.5647C151.465 51.4111 151.634 52.2469 151.572 53.0721C151.516 53.9082 151.249 54.6644 150.772 55.3407C150.301 56.0279 149.636 56.5738 148.779 56.9785C147.932 57.3781 147.089 57.5442 146.247 57.477C145.422 57.4154 144.663 57.1433 143.971 56.6607C143.289 56.173 142.751 55.5114 142.357 54.6758ZM143.382 54.1917C143.674 54.8102 144.069 55.2942 144.565 55.6435C145.073 55.9878 145.64 56.1777 146.268 56.2133C146.911 56.2547 147.564 56.1191 148.225 55.8066C148.898 55.489 149.418 55.0713 149.784 54.5535C150.155 54.0466 150.363 53.4903 150.409 52.8848C150.466 52.2742 150.35 51.665 150.063 51.0574C149.777 50.4497 149.379 49.9738 148.872 49.6295C148.375 49.2802 147.81 49.0822 147.178 49.0358C146.546 48.9893 145.893 49.1249 145.22 49.4425C144.558 49.755 144.039 50.1727 143.662 50.6956C143.296 51.2134 143.085 51.7776 143.028 52.3882C142.982 52.9937 143.1 53.5949 143.382 54.1917Z" fill="black"/>
<path d="M146.468 65.6959C146.252 64.9091 146.235 64.1482 146.419 63.4132C146.614 62.675 147 62.0211 147.578 61.4516C148.17 60.8904 148.964 60.473 149.959 60.1993C150.954 59.9256 151.844 59.88 152.629 60.0625C153.425 60.2418 154.09 60.6004 154.623 61.1381C155.157 61.6758 155.534 62.3438 155.753 63.1421C155.992 64.0099 156.009 64.8392 155.803 65.63C155.612 66.4292 155.218 67.1226 154.62 67.7101C154.034 68.2944 153.284 68.7123 152.37 68.9637C151.445 69.2183 150.581 69.2443 149.778 69.0419C148.976 68.8394 148.282 68.4452 147.698 67.8592C147.117 67.2847 146.707 66.5636 146.468 65.6959ZM141.894 61.8947L154.373 58.4627L154.697 59.6429L151.955 60.3971L150.099 60.7768L148.307 61.4563L142.233 63.127L141.894 61.8947ZM147.538 65.3084C147.716 65.9563 148.02 66.495 148.449 66.9246C148.89 67.3509 149.418 67.6413 150.033 67.7957C150.659 67.947 151.326 67.9256 152.031 67.7315C152.737 67.5373 153.315 67.2167 153.764 66.7695C154.214 66.3223 154.519 65.8028 154.68 65.2109C154.84 64.6191 154.832 63.9992 154.653 63.3513C154.475 62.7034 154.164 62.1605 153.72 61.7225C153.279 61.2962 152.751 61.0058 152.136 60.8513C151.524 60.7085 150.866 60.7341 150.16 60.9282C149.454 61.1223 148.869 61.4388 148.405 61.8776C147.955 62.3248 147.65 62.8443 147.489 63.4362C147.343 64.0364 147.359 64.6604 147.538 65.3084Z" fill="black"/>
</svg>
