<svg width="24" height="24" viewBox="0 0 24 24" fill="none" xmlns="http://www.w3.org/2000/svg">
<path d="M22.0403 4.48381L19.1116 1.55818C18.7541 1.20072 18.2756 1 17.7696 1C17.2636 1 16.7851 1.19798 16.4276 1.55818L13.2733 4.70654C12.9158 5.06399 12.7151 5.54518 12.7151 6.05112C12.7151 6.55981 12.9131 7.0355 13.2733 7.3957L15.7373 9.86214C15.176 11.1698 14.3695 12.358 13.3613 13.3625C12.352 14.3771 11.1723 15.1772 9.86329 15.7437L7.39928 13.2772C7.04178 12.9198 6.56327 12.719 6.05727 12.719C5.80769 12.7181 5.56043 12.767 5.32999 12.8629C5.09955 12.9587 4.89056 13.0996 4.71527 13.2772L1.55825 16.4256C1.20075 16.783 1 17.2642 1 17.7702C1 18.2788 1.198 18.7545 1.55825 19.1147L4.48427 22.0404C5.09477 22.6508 5.93627 23 6.79978 23C6.97853 23 7.15178 22.9863 7.32778 22.956C10.9688 22.3566 14.5823 20.4181 17.5001 17.5034C20.4151 14.5833 22.3511 10.9703 22.9561 7.32696C23.1293 6.29309 22.7828 5.22897 22.0403 4.48381ZM21.0063 6.99975C20.4701 10.2416 18.7266 13.4752 16.1003 16.1011C13.4741 18.727 10.2428 20.4703 7.00053 21.0065C6.59352 21.0752 6.17552 20.9378 5.87852 20.6435L3.00476 17.7702L6.05177 14.7208L9.34629 18.0204L9.37104 18.0451L9.96504 17.8251C11.7661 17.163 13.4016 16.1173 14.7583 14.7603C16.1149 13.4034 17.1603 11.7677 17.8218 9.96663L18.0418 9.3727L14.7198 6.05387L17.7668 3.0045L20.6406 5.87789C20.9376 6.17485 21.0751 6.5928 21.0063 6.99975Z" fill="#0E0E0E"/>
</svg>
