<svg width="24" height="24" viewBox="0 0 24 24" fill="none" xmlns="http://www.w3.org/2000/svg">
<path d="M23.5608 9.56078L21.4397 7.43969C21.1584 7.15844 20.7769 7.00047 20.3789 7.00047H18V3.25C18 2.00734 16.9927 1 15.75 1H8.25C7.00734 1 6 2.00734 6 3.25V7H3.62109C3.22312 7 2.84203 7.15797 2.56031 7.43922L0.439219 9.56078C0.157969 9.84203 0 10.2236 0 10.6216V14.5H6V13.75C6 13.3356 6.33563 13 6.75 13H8.25C8.66438 13 9 13.3356 9 13.75V14.5H15V13.75C15 13.3356 15.3356 13 15.75 13H17.25C17.6644 13 18 13.3356 18 13.75V14.5H24V10.6211C24 10.2236 23.842 9.84203 23.5608 9.56078ZM15 7H9V4H15V7ZM18 16.75C18 17.1644 17.6644 17.5 17.25 17.5H15.75C15.3356 17.5 15 17.1644 15 16.75V16H9V16.75C9 17.1644 8.66438 17.5 8.25 17.5H6.75C6.33563 17.5 6 17.1644 6 16.75V16H0V20.5C0 21.3283 0.671719 22 1.5 22H22.5C23.3283 22 24 21.3283 24 20.5V16H18V16.75Z" fill="#CFD4DA"/>
</svg>
