<!-- Generated by IcoMoon.io -->
<svg version="1.1" xmlns="http://www.w3.org/2000/svg" width="32" height="32" viewBox="0 0 32 32">
<title>big_logo</title>
<path d="M13.081 28.274v-4.068l-0.105-0.666v-6.803c0-1.566-0.444-2.77-1.333-3.612-0.865-0.842-2.163-1.262-3.893-1.262-1.192 0-2.326 0.199-3.402 0.596s-1.987 0.924-2.735 1.578l-1.122-1.859c0.935-0.795 2.057-1.403 3.367-1.824 1.309-0.444 2.689-0.666 4.138-0.666 2.385 0 4.22 0.596 5.506 1.789 1.309 1.169 1.964 2.957 1.964 5.365v11.432h-2.385zM6.733 28.449c-1.379 0-2.583-0.222-3.612-0.666-1.005-0.468-1.777-1.099-2.315-1.894-0.538-0.818-0.807-1.753-0.807-2.805 0-0.959 0.222-1.824 0.666-2.595 0.468-0.795 1.216-1.426 2.244-1.894 1.052-0.491 2.455-0.736 4.208-0.736h6.347v1.859h-6.277c-1.777 0-3.016 0.316-3.717 0.947-0.678 0.631-1.017 1.414-1.017 2.35 0 1.052 0.409 1.894 1.227 2.525s1.964 0.947 3.437 0.947c1.403 0 2.607-0.316 3.612-0.947 1.029-0.655 1.777-1.59 2.244-2.805l0.561 1.718c-0.468 1.216-1.286 2.186-2.455 2.911-1.146 0.725-2.595 1.087-4.348 1.087z"></path>
<path d="M23.39 28.449c-1.917 0-3.6-0.397-5.050-1.192-1.45-0.818-2.583-1.929-3.402-3.332-0.818-1.426-1.227-3.051-1.227-4.875s0.386-3.437 1.157-4.839c0.795-1.403 1.87-2.502 3.226-3.296 1.379-0.818 2.922-1.227 4.629-1.227 1.73 0 3.261 0.397 4.594 1.192 1.356 0.771 2.42 1.87 3.191 3.296 0.771 1.403 1.157 3.028 1.157 4.875 0 0.117-0.012 0.245-0.035 0.386 0 0.117 0 0.245 0 0.386h-16.026v-1.859h14.694l-0.982 0.736c0-1.333-0.292-2.513-0.877-3.542-0.561-1.052-1.333-1.87-2.315-2.455s-2.116-0.877-3.402-0.877c-1.262 0-2.396 0.292-3.402 0.877s-1.788 1.403-2.35 2.455c-0.561 1.052-0.842 2.256-0.842 3.612v0.386c0 1.403 0.304 2.642 0.912 3.717 0.631 1.052 1.496 1.882 2.595 2.49 1.122 0.584 2.396 0.877 3.822 0.877 1.122 0 2.163-0.199 3.121-0.596 0.982-0.397 1.824-1.005 2.525-1.824l1.403 1.613c-0.818 0.982-1.847 1.73-3.086 2.244-1.216 0.514-2.56 0.771-4.033 0.771z"></path>
<path d="M29.633 5.918h-12.274v-2.63h12.274v2.63z"></path>
</svg>
