<!-- Generated by IcoMoon.io -->
<svg version="1.1" xmlns="http://www.w3.org/2000/svg" width="32" height="32" viewBox="0 0 32 32">
<title>mob_tel</title>
<path d="M29.276 6.061l-3.873-3.869c-0.473-0.473-1.105-0.738-1.775-0.738s-1.302 0.262-1.775 0.738l-4.171 4.163c-0.473 0.473-0.738 1.109-0.738 1.778 0 0.673 0.262 1.302 0.738 1.778l3.258 3.261c-0.742 1.729-1.809 3.3-3.142 4.629-1.335 1.342-2.895 2.4-4.625 3.149l-3.258-3.261c-0.473-0.473-1.105-0.738-1.775-0.738-0.33-0.001-0.657 0.063-0.962 0.19s-0.581 0.313-0.813 0.548l-4.175 4.163c-0.473 0.473-0.738 1.109-0.738 1.778 0 0.673 0.262 1.302 0.738 1.778l3.869 3.869c0.807 0.807 1.92 1.269 3.062 1.269 0.236 0 0.465-0.018 0.698-0.058 4.814-0.793 9.593-3.356 13.451-7.21 3.855-3.861 6.415-8.639 7.215-13.456 0.229-1.367-0.229-2.774-1.211-3.76zM27.909 9.388c-0.709 4.287-3.015 8.563-6.487 12.035s-7.746 5.777-12.033 6.486c-0.538 0.091-1.091-0.091-1.484-0.48l-3.8-3.8 4.029-4.032 4.389 4.396 0.785-0.291c2.382-0.875 4.544-2.258 6.338-4.053s3.176-3.957 4.051-6.339l0.291-0.785-4.393-4.389 4.029-4.032 3.8 3.8c0.393 0.393 0.575 0.945 0.484 1.483z"></path>
</svg>
