<!-- Generated by IcoMoon.io -->
<svg version="1.1" xmlns="http://www.w3.org/2000/svg" width="32" height="32" viewBox="0 0 32 32">
<title>mobile_logo</title>
<path d="M12.711 27.852v-3.848l-0.172-0.721v-6.561c0-1.397-0.412-2.473-1.237-3.229-0.802-0.779-2.015-1.168-3.641-1.168-1.076 0-2.13 0.183-3.16 0.55-1.031 0.344-1.901 0.813-2.611 1.409l-1.374-2.473c0.939-0.756 2.061-1.328 3.367-1.718 1.328-0.412 2.714-0.618 4.157-0.618 2.496 0 4.42 0.607 5.771 1.821s2.027 3.069 2.027 5.565v10.993h-3.126zM6.733 28.058c-1.351 0-2.542-0.229-3.573-0.687-1.008-0.458-1.786-1.088-2.336-1.889-0.55-0.824-0.824-1.752-0.824-2.783 0-0.985 0.229-1.878 0.687-2.68 0.481-0.802 1.248-1.443 2.302-1.924 1.076-0.481 2.519-0.721 4.329-0.721h5.771v2.37h-5.634c-1.649 0-2.76 0.275-3.332 0.825s-0.859 1.214-0.859 1.992c0 0.893 0.355 1.615 1.065 2.164 0.71 0.527 1.695 0.79 2.954 0.79 1.237 0 2.313-0.275 3.229-0.825 0.939-0.55 1.615-1.351 2.027-2.405l0.653 2.267c-0.435 1.076-1.202 1.935-2.302 2.576-1.099 0.618-2.485 0.927-4.157 0.927z"></path>
<path d="M23.257 28.058c-1.947 0-3.664-0.401-5.153-1.202-1.466-0.802-2.611-1.901-3.435-3.298-0.802-1.397-1.202-3-1.202-4.809s0.389-3.412 1.168-4.809c0.802-1.397 1.889-2.485 3.264-3.264 1.397-0.802 2.966-1.202 4.706-1.202 1.763 0 3.321 0.389 4.672 1.168s2.405 1.878 3.16 3.298c0.779 1.397 1.168 3.035 1.168 4.913 0 0.137-0.011 0.298-0.034 0.481 0 0.183-0.011 0.355-0.034 0.515h-15.493v-2.37h13.776l-1.34 0.824c0.023-1.168-0.218-2.21-0.721-3.126s-1.202-1.626-2.096-2.13c-0.87-0.527-1.889-0.79-3.057-0.79-1.145 0-2.164 0.263-3.057 0.79-0.893 0.504-1.592 1.225-2.096 2.164-0.504 0.916-0.756 1.97-0.756 3.16v0.55c0 1.214 0.275 2.302 0.825 3.264 0.573 0.939 1.363 1.672 2.37 2.199s2.164 0.79 3.47 0.79c1.076 0 2.050-0.183 2.92-0.55 0.893-0.366 1.672-0.916 2.336-1.649l1.821 2.13c-0.825 0.962-1.855 1.695-3.092 2.199-1.214 0.504-2.576 0.756-4.088 0.756z"></path>
<path d="M29.2 6.055h-12.024v-2.576h12.024v2.576z"></path>
</svg>
