<!-- Generated by IcoMoon.io -->
<svg version="1.1" xmlns="http://www.w3.org/2000/svg" width="32" height="32" viewBox="0 0 32 32">
<title>tab_tel</title>
<path d="M29.387 5.978l-3.905-3.901c-0.477-0.477-1.115-0.744-1.789-0.744s-1.313 0.264-1.789 0.744l-4.206 4.198c-0.477 0.477-0.744 1.118-0.744 1.793 0 0.678 0.264 1.313 0.744 1.793l3.285 3.289c-0.748 1.744-1.824 3.328-3.168 4.667-1.346 1.353-2.919 2.42-4.664 3.175l-3.285-3.289c-0.477-0.477-1.115-0.744-1.789-0.744-0.333-0.001-0.662 0.064-0.97 0.192s-0.586 0.316-0.82 0.552l-4.209 4.198c-0.477 0.477-0.744 1.118-0.744 1.793 0 0.678 0.264 1.312 0.744 1.793l3.901 3.901c0.814 0.814 1.936 1.279 3.087 1.279 0.238 0 0.469-0.018 0.704-0.059 4.855-0.799 9.673-3.384 13.563-7.27 3.887-3.893 6.468-8.711 7.275-13.569 0.231-1.379-0.231-2.797-1.221-3.791zM28.008 9.333c-0.715 4.322-3.040 8.634-6.541 12.135s-7.81 5.826-12.133 6.541c-0.543 0.092-1.1-0.092-1.496-0.484l-3.832-3.831 4.063-4.066 4.426 4.432 0.792-0.293c2.401-0.883 4.582-2.277 6.391-4.086s3.203-3.99 4.085-6.392l0.293-0.792-4.429-4.425 4.063-4.066 3.832 3.831c0.396 0.396 0.579 0.953 0.488 1.496z"></path>
</svg>
