<!-- Generated by IcoMoon.io -->
<svg version="1.1" xmlns="http://www.w3.org/2000/svg" width="32" height="32" viewBox="0 0 32 32">
<title>tab_btn_text</title>
<path d="M28.301 16.802c0.011-0.166 0.044-0.322 0.1-0.467 0.058-0.145 0.126-0.257 0.203-0.337l0.207 0.137c-0.067 0.078-0.127 0.179-0.182 0.304-0.052 0.125-0.082 0.258-0.092 0.398-0.013 0.192 0.008 0.331 0.061 0.42 0.056 0.088 0.133 0.136 0.233 0.142 0.074 0.005 0.133-0.016 0.177-0.061 0.047-0.043 0.082-0.102 0.108-0.178 0.028-0.075 0.053-0.159 0.074-0.253s0.046-0.187 0.072-0.28c0.026-0.091 0.061-0.173 0.105-0.247 0.046-0.074 0.105-0.133 0.177-0.177 0.072-0.041 0.166-0.058 0.281-0.051 0.11 0.007 0.206 0.044 0.289 0.111s0.145 0.161 0.186 0.282c0.043 0.123 0.059 0.271 0.048 0.442-0.009 0.13-0.035 0.259-0.079 0.387-0.042 0.128-0.093 0.232-0.155 0.313l-0.211-0.133c0.067-0.085 0.117-0.178 0.149-0.279 0.035-0.1 0.055-0.202 0.062-0.304 0.012-0.181-0.011-0.318-0.069-0.409-0.056-0.088-0.132-0.136-0.229-0.142-0.077-0.005-0.138 0.014-0.185 0.057-0.047 0.046-0.085 0.106-0.116 0.181-0.028 0.078-0.053 0.162-0.074 0.253-0.022 0.094-0.047 0.186-0.076 0.276-0.027 0.093-0.062 0.177-0.105 0.251-0.041 0.077-0.097 0.136-0.169 0.177-0.070 0.044-0.159 0.063-0.269 0.055-0.118-0.008-0.217-0.048-0.3-0.12-0.080-0.069-0.14-0.168-0.181-0.297-0.038-0.126-0.051-0.277-0.039-0.453z"></path>
<path d="M29.967 19.45c-0.039 0.159-0.103 0.291-0.195 0.395-0.089 0.107-0.204 0.18-0.345 0.217-0.141 0.040-0.307 0.036-0.496-0.009l-1.138-0.276 0.064-0.265 1.112 0.27c0.206 0.050 0.375 0.036 0.505-0.044 0.132-0.076 0.22-0.207 0.266-0.394 0.034-0.139 0.035-0.268 0.003-0.387-0.030-0.115-0.092-0.214-0.185-0.298-0.091-0.080-0.211-0.138-0.361-0.174l-1.030-0.25 0.064-0.265 2.769 0.671-0.064 0.265-1.347-0.327 0.113-0.028c0.127 0.097 0.213 0.223 0.26 0.379 0.049 0.157 0.050 0.33 0.004 0.519z"></path>
<path d="M27.201 21.162c0.083-0.176 0.196-0.317 0.341-0.421 0.146-0.101 0.308-0.16 0.485-0.176 0.179-0.015 0.36 0.020 0.541 0.104 0.183 0.086 0.325 0.201 0.427 0.348s0.159 0.307 0.172 0.483c0.014 0.176-0.021 0.353-0.105 0.532-0.085 0.181-0.199 0.322-0.343 0.425-0.145 0.105-0.305 0.164-0.482 0.177-0.177 0.016-0.357-0.019-0.54-0.104-0.181-0.084-0.323-0.201-0.427-0.348-0.102-0.144-0.161-0.305-0.176-0.485-0.013-0.178 0.023-0.357 0.106-0.535zM27.421 21.264c-0.062 0.132-0.088 0.263-0.077 0.392 0.013 0.13 0.059 0.249 0.138 0.357 0.081 0.111 0.192 0.2 0.333 0.266 0.144 0.067 0.283 0.096 0.418 0.085 0.134-0.008 0.253-0.050 0.359-0.125 0.108-0.074 0.192-0.176 0.253-0.305s0.085-0.26 0.072-0.39c-0.010-0.129-0.055-0.249-0.133-0.359s-0.189-0.199-0.333-0.266c-0.141-0.066-0.281-0.095-0.418-0.085-0.135 0.010-0.256 0.053-0.364 0.126-0.106 0.075-0.189 0.176-0.248 0.304z"></path>
<path d="M25.92 23.326c0.103-0.14 0.228-0.244 0.375-0.311 0.149-0.065 0.31-0.087 0.482-0.066 0.172 0.025 0.348 0.102 0.525 0.232s0.303 0.273 0.377 0.428c0.076 0.157 0.104 0.315 0.084 0.476s-0.081 0.312-0.186 0.454c-0.113 0.155-0.25 0.268-0.41 0.338-0.159 0.074-0.327 0.1-0.505 0.078-0.176-0.020-0.345-0.091-0.508-0.21-0.165-0.121-0.284-0.262-0.356-0.423s-0.098-0.329-0.078-0.504c0.019-0.173 0.085-0.337 0.199-0.492zM25.95 22.058l2.227 1.631-0.154 0.211-0.489-0.358-0.31-0.26-0.351-0.209-1.084-0.794 0.161-0.22zM26.126 23.453c-0.085 0.116-0.135 0.238-0.15 0.366-0.013 0.13 0.009 0.257 0.064 0.38 0.058 0.125 0.15 0.233 0.276 0.326s0.256 0.146 0.391 0.162c0.134 0.016 0.262-0.002 0.382-0.053s0.223-0.135 0.308-0.251c0.085-0.115 0.134-0.239 0.149-0.372 0.013-0.13-0.009-0.257-0.064-0.38-0.057-0.121-0.149-0.228-0.275-0.32s-0.256-0.148-0.391-0.168c-0.134-0.016-0.262 0.002-0.382 0.053-0.12 0.055-0.222 0.14-0.307 0.256z"></path>
<path d="M24.76 27.412c-0.13 0.1-0.263 0.163-0.399 0.187-0.137 0.028-0.272 0.013-0.405-0.046-0.135-0.057-0.262-0.163-0.381-0.317l-0.717-0.926 0.216-0.167 0.7 0.905c0.13 0.168 0.27 0.262 0.421 0.281 0.15 0.023 0.302-0.024 0.454-0.142 0.113-0.088 0.195-0.188 0.244-0.3 0.049-0.109 0.063-0.224 0.042-0.348-0.021-0.119-0.079-0.24-0.173-0.361l-0.649-0.838 0.216-0.167 1.234 1.594-0.207 0.16-0.338-0.437 0.097 0.056c0.039 0.154 0.027 0.307-0.034 0.458-0.060 0.153-0.167 0.289-0.321 0.408z"></path>
<path d="M21.552 27.014c0.174-0.087 0.351-0.126 0.529-0.118 0.178 0.012 0.341 0.066 0.49 0.163 0.15 0.1 0.27 0.239 0.359 0.417 0.090 0.181 0.13 0.36 0.119 0.537s-0.067 0.339-0.165 0.486c-0.099 0.147-0.236 0.264-0.412 0.352-0.179 0.089-0.356 0.129-0.532 0.12-0.179-0.008-0.341-0.061-0.488-0.16-0.149-0.097-0.269-0.237-0.359-0.417-0.089-0.179-0.129-0.358-0.119-0.538 0.009-0.176 0.064-0.339 0.163-0.489 0.101-0.148 0.239-0.265 0.416-0.354zM21.661 27.23c-0.131 0.065-0.232 0.151-0.304 0.259-0.071 0.11-0.109 0.232-0.113 0.366-0.006 0.137 0.026 0.276 0.096 0.416 0.071 0.142 0.163 0.251 0.275 0.326 0.11 0.077 0.23 0.119 0.359 0.126 0.131 0.009 0.26-0.018 0.388-0.082s0.228-0.151 0.299-0.261c0.072-0.108 0.112-0.229 0.119-0.364s-0.025-0.274-0.096-0.416c-0.070-0.14-0.162-0.248-0.275-0.326-0.112-0.076-0.234-0.118-0.364-0.127-0.129-0.007-0.257 0.021-0.383 0.084z"></path>
<path d="M19.846 27.773l1.228 1.771-0.253 0.063-1.126-1.646 0.115-0.029-0.234 1.987-0.227 0.057-1.137-1.643 0.115-0.029-0.227 1.985-0.242 0.061 0.251-2.141 0.25-0.063 1.084 1.542-0.078 0.020 0.231-1.871 0.25-0.063z"></path>
<path d="M15.599 28.327c0.166 0.005 0.323 0.033 0.47 0.084 0.147 0.053 0.261 0.117 0.344 0.191l-0.129 0.211c-0.080-0.064-0.183-0.121-0.31-0.171-0.127-0.048-0.26-0.073-0.401-0.078-0.192-0.006-0.331 0.019-0.417 0.075-0.086 0.059-0.131 0.138-0.134 0.238-0.002 0.074 0.020 0.132 0.068 0.175 0.045 0.045 0.105 0.079 0.181 0.102 0.076 0.025 0.161 0.047 0.255 0.066s0.188 0.039 0.282 0.063c0.091 0.023 0.175 0.055 0.251 0.096 0.076 0.043 0.137 0.1 0.183 0.171 0.044 0.071 0.064 0.163 0.061 0.279-0.003 0.11-0.037 0.208-0.101 0.293s-0.156 0.15-0.275 0.195c-0.122 0.047-0.268 0.068-0.44 0.063-0.13-0.004-0.26-0.026-0.39-0.066-0.129-0.037-0.236-0.086-0.318-0.144l0.126-0.215c0.088 0.064 0.182 0.111 0.284 0.139 0.101 0.031 0.203 0.049 0.306 0.052 0.182 0.006 0.317-0.022 0.406-0.084 0.086-0.059 0.131-0.137 0.134-0.234 0.002-0.077-0.019-0.138-0.063-0.183-0.047-0.045-0.109-0.081-0.185-0.109-0.079-0.025-0.164-0.047-0.255-0.066-0.094-0.018-0.187-0.040-0.278-0.066-0.094-0.023-0.179-0.055-0.254-0.096-0.078-0.038-0.139-0.093-0.183-0.163-0.047-0.068-0.068-0.157-0.065-0.267 0.004-0.118 0.040-0.219 0.109-0.304 0.067-0.082 0.163-0.146 0.29-0.191 0.124-0.042 0.275-0.061 0.451-0.055z"></path>
<path d="M13.021 30.081c-0.16-0.033-0.294-0.093-0.402-0.181-0.11-0.086-0.187-0.198-0.228-0.337-0.044-0.14-0.047-0.305-0.007-0.496l0.237-1.147 0.267 0.055-0.232 1.12c-0.043 0.208-0.023 0.376 0.061 0.503 0.081 0.129 0.215 0.213 0.403 0.252 0.14 0.029 0.269 0.025 0.386-0.010 0.114-0.034 0.211-0.099 0.291-0.195 0.077-0.094 0.131-0.216 0.162-0.366l0.215-1.038 0.267 0.055-0.577 2.79-0.267-0.055 0.281-1.357 0.032 0.112c-0.092 0.13-0.216 0.221-0.37 0.273-0.155 0.054-0.328 0.062-0.518 0.022z"></path>
<path d="M11.24 27.387c0.179 0.076 0.324 0.184 0.434 0.325 0.107 0.142 0.171 0.302 0.194 0.478 0.022 0.179-0.006 0.36-0.084 0.544-0.079 0.186-0.189 0.333-0.332 0.439s-0.301 0.17-0.477 0.19c-0.175 0.020-0.354-0.008-0.536-0.084-0.184-0.078-0.33-0.187-0.437-0.327-0.11-0.141-0.175-0.299-0.195-0.474-0.023-0.176 0.005-0.358 0.084-0.544 0.078-0.184 0.188-0.33 0.332-0.439 0.14-0.108 0.299-0.172 0.478-0.194 0.178-0.019 0.357 0.009 0.539 0.086zM11.146 27.61c-0.134-0.057-0.266-0.078-0.395-0.063-0.13 0.017-0.247 0.068-0.352 0.151-0.108 0.085-0.193 0.199-0.254 0.343-0.062 0.146-0.085 0.287-0.070 0.421 0.013 0.133 0.059 0.252 0.138 0.354 0.078 0.105 0.183 0.186 0.315 0.241s0.263 0.075 0.393 0.058c0.129-0.015 0.247-0.064 0.354-0.147s0.192-0.197 0.254-0.343c0.061-0.144 0.084-0.284 0.070-0.421-0.015-0.134-0.062-0.254-0.14-0.359-0.079-0.103-0.183-0.182-0.313-0.236z"></path>
<path d="M9.031 26.187c0.144 0.098 0.252 0.219 0.324 0.364 0.071 0.147 0.098 0.306 0.083 0.479-0.018 0.173-0.089 0.351-0.213 0.533s-0.262 0.313-0.414 0.392c-0.154 0.081-0.312 0.115-0.473 0.102s-0.315-0.070-0.461-0.169c-0.159-0.108-0.276-0.24-0.353-0.397-0.080-0.156-0.112-0.323-0.096-0.501 0.014-0.176 0.078-0.348 0.192-0.515 0.115-0.169 0.252-0.293 0.41-0.372s0.325-0.11 0.502-0.096c0.174 0.013 0.34 0.073 0.499 0.18zM10.301 26.17l-1.551 2.284-0.216-0.147 0.341-0.502 0.249-0.319 0.197-0.358 0.755-1.112 0.226 0.153zM8.911 26.398c-0.119-0.080-0.243-0.126-0.372-0.136-0.131-0.008-0.257 0.018-0.378 0.078-0.123 0.062-0.228 0.158-0.316 0.287s-0.137 0.261-0.148 0.396c-0.011 0.135 0.011 0.261 0.067 0.38s0.143 0.218 0.262 0.298c0.119 0.080 0.244 0.125 0.377 0.135 0.131 0.008 0.257-0.018 0.378-0.078 0.119-0.061 0.223-0.157 0.31-0.286s0.139-0.262 0.153-0.397c0.011-0.135-0.011-0.261-0.067-0.38-0.059-0.118-0.148-0.217-0.267-0.297z"></path>
<path d="M4.907 25.181c-0.105-0.126-0.172-0.256-0.202-0.392-0.033-0.136-0.023-0.271 0.032-0.406 0.053-0.137 0.154-0.268 0.303-0.392l0.9-0.749 0.175 0.209-0.88 0.732c-0.163 0.136-0.252 0.279-0.266 0.431-0.017 0.151 0.035 0.3 0.158 0.448 0.092 0.11 0.195 0.188 0.309 0.233 0.111 0.045 0.227 0.054 0.349 0.029 0.119-0.026 0.237-0.087 0.355-0.186l0.815-0.678 0.175 0.209-1.55 1.29-0.167-0.201 0.425-0.354-0.053 0.099c-0.153 0.044-0.306 0.038-0.459-0.017-0.155-0.054-0.295-0.156-0.42-0.305z"></path>
<path d="M5.191 21.97c0.093 0.171 0.139 0.345 0.138 0.524-0.005 0.178-0.053 0.343-0.145 0.495-0.094 0.153-0.229 0.278-0.404 0.374-0.178 0.097-0.355 0.143-0.533 0.138s-0.342-0.054-0.492-0.147-0.272-0.226-0.367-0.399c-0.096-0.175-0.143-0.351-0.14-0.527 0.001-0.179 0.049-0.343 0.142-0.493 0.092-0.152 0.226-0.277 0.404-0.374 0.175-0.096 0.353-0.142 0.533-0.138 0.177 0.003 0.342 0.051 0.495 0.145 0.151 0.095 0.274 0.229 0.369 0.402zM4.979 22.086c-0.070-0.128-0.16-0.226-0.27-0.294-0.112-0.067-0.236-0.1-0.37-0.1-0.138-0.001-0.275 0.036-0.412 0.111-0.139 0.076-0.245 0.172-0.316 0.287-0.073 0.112-0.11 0.234-0.112 0.363-0.004 0.131 0.028 0.259 0.097 0.385s0.159 0.222 0.272 0.289c0.11 0.068 0.233 0.103 0.368 0.105s0.273-0.035 0.412-0.111c0.137-0.075 0.242-0.17 0.316-0.287 0.071-0.115 0.109-0.238 0.114-0.368 0.002-0.13-0.031-0.256-0.098-0.38z"></path>
<path d="M4.367 20.3l-1.728 1.287-0.072-0.251 1.606-1.18 0.033 0.114-1.994-0.167-0.065-0.225 1.603-1.191 0.033 0.114-1.992-0.159-0.069-0.24 2.149 0.178 0.071 0.247-1.504 1.135-0.022-0.078 1.878 0.168 0.071 0.247z"></path>
<path d="M3.657 16.147c0.001 0.166-0.021 0.324-0.065 0.473-0.047 0.149-0.107 0.266-0.178 0.351l-0.216-0.121c0.061-0.082 0.114-0.188 0.159-0.316 0.043-0.128 0.063-0.263 0.062-0.404-0.001-0.192-0.032-0.33-0.092-0.414-0.062-0.084-0.143-0.126-0.243-0.125-0.074 0.001-0.132 0.025-0.172 0.074-0.043 0.046-0.075 0.108-0.095 0.185-0.022 0.077-0.041 0.163-0.056 0.258s-0.032 0.19-0.052 0.285c-0.020 0.092-0.049 0.177-0.086 0.254-0.040 0.077-0.095 0.14-0.164 0.189-0.069 0.047-0.161 0.070-0.276 0.071-0.11 0.001-0.209-0.029-0.296-0.090s-0.156-0.15-0.206-0.267c-0.052-0.12-0.079-0.266-0.080-0.437-0.001-0.131 0.016-0.261 0.051-0.392 0.032-0.131 0.076-0.239 0.132-0.324l0.22 0.117c-0.061 0.090-0.104 0.186-0.128 0.289-0.027 0.103-0.041 0.205-0.040 0.308 0.001 0.182 0.034 0.316 0.099 0.402 0.062 0.084 0.142 0.126 0.239 0.125 0.077-0.001 0.137-0.024 0.18-0.070 0.043-0.049 0.077-0.112 0.102-0.189 0.022-0.080 0.041-0.165 0.056-0.258 0.015-0.095 0.033-0.188 0.055-0.281 0.020-0.095 0.049-0.181 0.086-0.258 0.035-0.080 0.087-0.143 0.156-0.189 0.066-0.049 0.154-0.074 0.264-0.075 0.118-0.001 0.22 0.032 0.308 0.097 0.085 0.063 0.152 0.158 0.202 0.283 0.047 0.123 0.071 0.272 0.073 0.449z"></path>
<path d="M1.802 13.611c0.027-0.162 0.082-0.298 0.166-0.408 0.081-0.114 0.191-0.194 0.328-0.241 0.138-0.050 0.303-0.058 0.495-0.027l1.155 0.193-0.045 0.269-1.129-0.188c-0.21-0.035-0.376-0.008-0.5 0.080-0.126 0.085-0.205 0.223-0.236 0.412-0.024 0.141-0.015 0.27 0.025 0.386 0.038 0.113 0.107 0.207 0.206 0.283 0.097 0.073 0.221 0.122 0.372 0.148l1.045 0.174-0.045 0.269-2.811-0.468 0.045-0.269 1.367 0.228-0.111 0.036c-0.133-0.087-0.229-0.207-0.286-0.359-0.060-0.153-0.074-0.325-0.042-0.517z"></path>
<path d="M4.423 11.727c-0.069 0.182-0.172 0.33-0.309 0.445-0.138 0.112-0.295 0.182-0.471 0.212-0.178 0.028-0.36 0.007-0.547-0.064-0.189-0.072-0.34-0.177-0.451-0.315s-0.181-0.295-0.208-0.469c-0.027-0.174-0.005-0.354 0.065-0.538 0.071-0.187 0.174-0.336 0.31-0.449 0.137-0.115 0.293-0.186 0.467-0.213 0.175-0.029 0.358-0.008 0.547 0.064 0.187 0.071 0.337 0.176 0.451 0.315 0.113 0.136 0.183 0.293 0.212 0.47 0.026 0.177 0.004 0.357-0.066 0.542zM4.197 11.642c0.052-0.136 0.068-0.269 0.048-0.397-0.022-0.129-0.077-0.244-0.164-0.346-0.089-0.105-0.206-0.185-0.352-0.24-0.148-0.056-0.289-0.074-0.423-0.054-0.133 0.018-0.249 0.068-0.349 0.151-0.102 0.082-0.179 0.19-0.23 0.324s-0.065 0.265-0.043 0.394c0.020 0.128 0.073 0.244 0.159 0.348s0.204 0.184 0.352 0.24c0.146 0.055 0.287 0.073 0.423 0.054 0.134-0.020 0.252-0.072 0.354-0.153 0.1-0.083 0.175-0.19 0.225-0.321z"></path>
<path d="M5.538 9.47c-0.092 0.148-0.21 0.26-0.352 0.337-0.144 0.076-0.303 0.11-0.476 0.101-0.174-0.012-0.354-0.076-0.541-0.193s-0.322-0.25-0.407-0.399c-0.087-0.151-0.126-0.307-0.119-0.468s0.058-0.317 0.152-0.467c0.102-0.163 0.23-0.285 0.384-0.367 0.153-0.085 0.319-0.124 0.498-0.114 0.176 0.008 0.35 0.065 0.522 0.172 0.174 0.109 0.302 0.241 0.386 0.396s0.122 0.321 0.114 0.497c-0.006 0.174-0.061 0.343-0.163 0.505zM5.6 10.737l-2.341-1.464 0.139-0.221 0.514 0.322 0.328 0.237 0.365 0.183 1.139 0.713-0.145 0.231zM5.322 9.358c0.076-0.121 0.117-0.247 0.122-0.376 0.003-0.131-0.027-0.256-0.092-0.374-0.067-0.12-0.166-0.222-0.299-0.304s-0.266-0.127-0.401-0.133c-0.135-0.006-0.261 0.021-0.377 0.081s-0.212 0.151-0.289 0.272c-0.076 0.121-0.117 0.249-0.121 0.382-0.003 0.131 0.027 0.256 0.092 0.374 0.066 0.117 0.165 0.216 0.297 0.299s0.267 0.129 0.403 0.139c0.135 0.006 0.261-0.021 0.377-0.081 0.115-0.064 0.211-0.156 0.287-0.278z"></path>
<path d="M6.393 5.304c0.122-0.109 0.25-0.181 0.384-0.215 0.134-0.038 0.27-0.032 0.407 0.017 0.139 0.047 0.273 0.144 0.403 0.288l0.782 0.872-0.203 0.182-0.764-0.852c-0.142-0.158-0.289-0.241-0.441-0.25-0.152-0.012-0.299 0.046-0.442 0.174-0.107 0.096-0.181 0.201-0.221 0.317-0.041 0.112-0.046 0.229-0.016 0.35 0.030 0.118 0.096 0.234 0.199 0.348l0.708 0.789-0.203 0.182-1.346-1.5 0.195-0.174 0.369 0.412-0.101-0.049c-0.050-0.151-0.050-0.304 0.001-0.459 0.048-0.157 0.145-0.3 0.29-0.43z"></path>
<path d="M9.593 5.478c-0.167 0.099-0.34 0.152-0.519 0.157-0.178 0.002-0.345-0.041-0.5-0.127-0.157-0.088-0.287-0.218-0.389-0.39-0.104-0.174-0.156-0.349-0.158-0.527s0.041-0.343 0.129-0.497c0.087-0.153 0.216-0.28 0.385-0.381 0.172-0.102 0.346-0.155 0.522-0.159 0.179-0.005 0.345 0.036 0.498 0.123 0.156 0.086 0.285 0.216 0.389 0.39 0.102 0.172 0.155 0.347 0.158 0.527 0.004 0.176-0.038 0.343-0.127 0.5-0.090 0.155-0.219 0.282-0.389 0.383zM9.469 5.27c0.125-0.075 0.22-0.168 0.284-0.281 0.063-0.115 0.091-0.239 0.086-0.373-0.004-0.137-0.047-0.273-0.127-0.407-0.081-0.136-0.181-0.238-0.298-0.305-0.115-0.068-0.238-0.101-0.367-0.099-0.131 0-0.258 0.037-0.381 0.111s-0.216 0.167-0.279 0.282c-0.064 0.113-0.095 0.236-0.091 0.372s0.045 0.271 0.127 0.407c0.080 0.134 0.179 0.236 0.298 0.305 0.117 0.067 0.242 0.1 0.373 0.1 0.13-0.003 0.255-0.040 0.376-0.112z"></path>
<path d="M11.223 4.586l-1.352-1.678 0.248-0.081 1.241 1.561-0.113 0.037 0.090-1.998 0.223-0.073 1.252 1.557-0.113 0.037 0.083-1.996 0.237-0.078-0.096 2.153-0.244 0.080-1.192-1.46 0.077-0.025-0.096 1.883-0.244 0.080z"></path>
<path d="M15.393 3.708c-0.166 0.007-0.325-0.009-0.475-0.049-0.15-0.042-0.269-0.097-0.357-0.166l0.114-0.22c0.084 0.058 0.192 0.107 0.321 0.148 0.13 0.038 0.265 0.054 0.406 0.048 0.192-0.008 0.329-0.043 0.411-0.106 0.082-0.065 0.121-0.147 0.116-0.247-0.003-0.074-0.030-0.131-0.080-0.17-0.048-0.042-0.111-0.071-0.188-0.088-0.078-0.020-0.164-0.035-0.259-0.047s-0.191-0.025-0.286-0.042c-0.093-0.017-0.179-0.042-0.257-0.078-0.078-0.038-0.143-0.090-0.195-0.157-0.049-0.067-0.076-0.158-0.081-0.273-0.005-0.11 0.022-0.21 0.079-0.299s0.144-0.161 0.26-0.215c0.118-0.056 0.263-0.088 0.434-0.095 0.13-0.006 0.262 0.007 0.394 0.037 0.132 0.028 0.241 0.068 0.328 0.121l-0.11 0.224c-0.092-0.058-0.19-0.097-0.293-0.118-0.104-0.024-0.206-0.034-0.309-0.029-0.182 0.008-0.315 0.045-0.399 0.113-0.082 0.065-0.121 0.146-0.117 0.243 0.003 0.077 0.029 0.136 0.077 0.177 0.050 0.041 0.115 0.073 0.192 0.096 0.080 0.020 0.167 0.035 0.259 0.047 0.095 0.011 0.189 0.027 0.283 0.046 0.095 0.016 0.182 0.042 0.261 0.077 0.081 0.032 0.146 0.082 0.195 0.149 0.051 0.064 0.079 0.152 0.084 0.262 0.005 0.118-0.024 0.221-0.087 0.311-0.060 0.087-0.152 0.158-0.275 0.212-0.121 0.051-0.269 0.081-0.446 0.088z"></path>
<path d="M17.879 1.762c0.162 0.021 0.3 0.072 0.414 0.151 0.116 0.077 0.2 0.184 0.252 0.32 0.054 0.136 0.069 0.301 0.043 0.494l-0.153 1.161-0.27-0.036 0.15-1.135c0.028-0.211-0.005-0.376-0.097-0.497-0.090-0.123-0.23-0.197-0.42-0.222-0.142-0.019-0.27-0.006-0.385 0.038-0.111 0.042-0.204 0.114-0.276 0.215-0.070 0.099-0.115 0.225-0.135 0.377l-0.139 1.051-0.27-0.036 0.373-2.825 0.27 0.036-0.181 1.374-0.040-0.11c0.083-0.136 0.199-0.236 0.349-0.299 0.151-0.065 0.322-0.085 0.515-0.060z"></path>
<path d="M19.892 4.322c-0.184-0.063-0.336-0.161-0.456-0.293-0.116-0.134-0.192-0.289-0.227-0.463-0.034-0.177-0.019-0.36 0.045-0.548 0.065-0.191 0.165-0.345 0.3-0.462s0.288-0.191 0.462-0.224c0.174-0.033 0.354-0.017 0.54 0.046 0.189 0.064 0.342 0.163 0.459 0.295 0.12 0.133 0.196 0.286 0.229 0.459 0.035 0.174 0.020 0.357-0.045 0.548-0.065 0.189-0.164 0.343-0.3 0.462-0.132 0.117-0.286 0.193-0.463 0.227-0.176 0.032-0.357 0.016-0.544-0.047zM19.97 4.093c0.138 0.047 0.271 0.059 0.398 0.034 0.128-0.027 0.241-0.085 0.34-0.176 0.102-0.092 0.178-0.212 0.229-0.36 0.051-0.15 0.064-0.292 0.040-0.425-0.023-0.132-0.077-0.247-0.163-0.344-0.085-0.099-0.195-0.172-0.331-0.218s-0.268-0.056-0.396-0.029c-0.127 0.024-0.241 0.081-0.343 0.171s-0.177 0.21-0.229 0.36c-0.050 0.148-0.064 0.289-0.040 0.425 0.025 0.133 0.080 0.249 0.165 0.348 0.086 0.097 0.196 0.168 0.329 0.214z"></path>
<path d="M22.13 5.325c-0.151-0.087-0.268-0.2-0.35-0.339-0.081-0.141-0.121-0.298-0.118-0.471 0.006-0.174 0.064-0.356 0.173-0.547s0.238-0.331 0.385-0.421c0.148-0.092 0.302-0.138 0.464-0.136s0.319 0.046 0.472 0.134c0.166 0.096 0.293 0.219 0.381 0.37 0.091 0.15 0.135 0.314 0.132 0.493-0.001 0.176-0.052 0.352-0.153 0.528-0.102 0.177-0.229 0.311-0.382 0.401s-0.316 0.134-0.493 0.133c-0.174 0-0.345-0.048-0.511-0.144zM20.866 5.435l1.379-2.392 0.226 0.13-0.303 0.526-0.225 0.336-0.17 0.372-0.671 1.164-0.236-0.136zM22.234 5.106c0.124 0.072 0.251 0.108 0.381 0.108 0.131-0.002 0.255-0.037 0.371-0.105 0.118-0.071 0.216-0.174 0.294-0.309s0.118-0.271 0.119-0.406-0.030-0.26-0.095-0.374c-0.064-0.114-0.159-0.207-0.283-0.278s-0.253-0.107-0.386-0.107c-0.131 0.002-0.255 0.037-0.371 0.105-0.114 0.070-0.211 0.173-0.288 0.308s-0.119 0.271-0.124 0.407c-0.001 0.135 0.030 0.26 0.095 0.374 0.068 0.113 0.164 0.205 0.288 0.277z"></path>
<path d="M26.349 6.035c0.114 0.118 0.19 0.243 0.23 0.376 0.043 0.133 0.042 0.269-0.002 0.407-0.042 0.14-0.134 0.278-0.274 0.413l-0.844 0.813-0.189-0.196 0.824-0.794c0.153-0.147 0.231-0.297 0.234-0.449 0.006-0.152-0.057-0.297-0.191-0.435-0.1-0.103-0.208-0.173-0.325-0.21-0.113-0.036-0.23-0.038-0.351-0.004-0.116 0.034-0.23 0.104-0.341 0.211l-0.763 0.735-0.189-0.196 1.452-1.399 0.181 0.188-0.398 0.384 0.045-0.102c0.15-0.055 0.303-0.061 0.46-0.016 0.159 0.043 0.305 0.134 0.441 0.274z"></path>
<path d="M26.339 9.304c-0.105-0.164-0.163-0.335-0.174-0.513-0.007-0.178 0.029-0.346 0.11-0.504 0.083-0.16 0.209-0.293 0.377-0.401 0.17-0.109 0.344-0.167 0.522-0.175s0.345 0.030 0.501 0.112c0.156 0.082 0.288 0.206 0.394 0.372 0.108 0.168 0.167 0.34 0.176 0.516 0.011 0.178-0.025 0.346-0.107 0.502-0.081 0.158-0.206 0.292-0.377 0.401-0.168 0.108-0.342 0.166-0.522 0.175-0.176 0.010-0.344-0.027-0.504-0.11-0.158-0.084-0.29-0.21-0.396-0.376zM26.543 9.174c0.079 0.123 0.176 0.214 0.29 0.275 0.117 0.059 0.242 0.083 0.376 0.074 0.137-0.009 0.272-0.056 0.403-0.14 0.134-0.086 0.232-0.188 0.295-0.308 0.065-0.117 0.093-0.241 0.086-0.37-0.005-0.131-0.046-0.256-0.123-0.377s-0.175-0.21-0.292-0.269c-0.115-0.060-0.24-0.087-0.375-0.079s-0.269 0.054-0.403 0.14c-0.132 0.084-0.23 0.187-0.295 0.308-0.063 0.12-0.092 0.245-0.088 0.375 0.007 0.129 0.049 0.253 0.125 0.372z"></path>
<path d="M27.278 10.903l1.631-1.407 0.090 0.245-1.518 1.292-0.041-0.112 2.001 0.024 0.081 0.22-1.514 1.303-0.041-0.112 1.998 0.016 0.086 0.234-2.156-0.024-0.089-0.242 1.419-1.239 0.028 0.076-1.886-0.033-0.089-0.242z"></path>
</svg>
