<?xml version="1.0" standalone="no"?>
<!DOCTYPE svg PUBLIC "-//W3C//DTD SVG 20010904//EN"
 "http://www.w3.org/TR/2001/REC-SVG-20010904/DTD/svg10.dtd">
<svg version="1.0" xmlns="http://www.w3.org/2000/svg"
 width="1168.000000pt" height="1168.000000pt" viewBox="0 0 1168.000000 1168.000000"
 preserveAspectRatio="xMidYMid meet">
<metadata>
Created by potrace 1.14, written by Peter Selinger 2001-2017
</metadata>
<g transform="translate(0.000000,1168.000000) scale(0.100000,-0.100000)"
fill="#000000" stroke="none">
<path d="M6337 10473 c-3 -7 -2 -908 2 -940 1 -11 61 -15 236 -14 129 1 204 0
233 -2 17 -2 32 -1 32 2 0 3 57 5 127 4 208 -3 273 -4 363 -4 47 0 100 -1 118
-2 17 -2 32 1 32 6 0 4 4 6 9 3 5 -3 130 -6 277 -6 148 1 294 0 324 -1 30 -1
71 -1 90 -1 75 2 197 1 228 -1 17 -2 32 1 32 6 0 4 4 6 9 3 6 -4 513 -8 611
-5 14 1 171 0 215 -1 11 0 38 0 60 1 22 0 47 1 55 0 8 0 56 0 105 0 50 0 95 1
100 0 6 0 89 0 185 0 96 0 200 -1 230 -2 30 -1 71 -1 90 -1 75 2 197 1 228 -1
17 -2 32 -1 32 2 0 3 71 4 157 1 87 -3 190 -4 228 -2 l71 3 -1 477 0 477
-2237 3 c-1230 1 -2238 -1 -2241 -5z"/>
<path d="M2787 8144 c-1 -1 -63 -5 -137 -9 -74 -3 -157 -9 -185 -12 -27 -2
-63 -6 -80 -6 -16 -1 -33 -6 -37 -12 -5 -6 -8 -5 -8 2 0 9 -7 10 -24 3 -13 -5
-57 -12 -97 -15 -40 -4 -77 -9 -81 -11 -4 -3 -20 -7 -35 -9 -43 -5 -92 -15
-163 -30 -36 -8 -76 -17 -90 -19 -14 -3 -25 -5 -25 -6 0 -1 -13 -4 -30 -6 -16
-3 -35 -9 -41 -15 -6 -5 -13 -7 -16 -4 -4 4 -212 -53 -258 -72 -8 -3 -22 -7
-30 -8 -15 -3 -205 -69 -250 -88 -14 -5 -29 -11 -35 -12 -28 -7 -210 -89 -213
-97 -2 -4 -8 -5 -14 -2 -6 4 -13 3 -17 -2 -3 -5 -46 -29 -96 -53 -49 -24 -97
-50 -105 -57 -8 -7 -19 -13 -25 -14 -15 -2 -180 -103 -183 -112 -2 -4 -8 -8
-13 -8 -9 0 -65 -36 -79 -50 -3 -3 -27 -21 -55 -40 -27 -19 -55 -39 -62 -45
-6 -5 -24 -20 -40 -32 -15 -12 -40 -32 -55 -45 l-27 -23 52 -88 c159 -268 212
-354 225 -369 8 -10 11 -18 6 -18 -5 0 -4 -4 2 -8 6 -4 34 -47 64 -97 62 -105
61 -104 67 -87 3 6 9 12 14 12 5 0 17 8 27 18 10 9 33 28 52 42 18 14 45 34
59 46 122 99 414 269 611 354 52 22 104 45 115 49 24 11 59 23 63 21 1 0 15 6
30 14 48 24 311 106 422 131 68 15 224 45 260 50 25 4 59 9 75 11 29 5 70 10
170 20 93 10 558 13 581 4 14 -6 26 -5 29 1 4 5 11 7 16 3 5 -3 24 -7 42 -10
18 -2 55 -6 82 -10 88 -10 109 -14 135 -19 14 -4 39 -8 55 -11 17 -3 53 -12
81 -20 28 -8 61 -17 73 -19 77 -17 190 -60 311 -118 46 -22 155 -90 158 -98 2
-5 8 -9 14 -9 11 0 68 -43 127 -95 181 -159 302 -332 406 -580 16 -37 49 -136
50 -150 0 -5 7 -30 14 -55 7 -25 15 -58 17 -75 3 -16 7 -41 10 -55 27 -119 38
-282 38 -590 l1 -265 -1095 -1 c-1231 -2 -1494 -8 -1705 -40 -22 -4 -49 -7
-60 -8 -18 -2 -124 -18 -135 -21 -3 -1 -25 -5 -50 -9 -25 -5 -54 -10 -65 -13
-11 -2 -31 -6 -45 -9 -14 -3 -33 -7 -42 -10 -9 -3 -27 -7 -40 -10 -13 -3 -27
-6 -33 -8 -79 -21 -115 -33 -200 -62 -55 -20 -116 -42 -135 -51 -85 -37 -271
-133 -323 -167 -32 -20 -61 -36 -66 -36 -5 0 -11 -3 -13 -7 -2 -5 -39 -35 -83
-68 -104 -77 -305 -278 -305 -304 0 -5 -4 -11 -8 -13 -12 -5 -77 -102 -74
-110 1 -5 -2 -8 -7 -8 -5 0 -13 -10 -17 -22 -3 -13 -15 -35 -26 -50 -11 -16
-16 -28 -11 -28 4 0 3 -4 -3 -8 -19 -13 -124 -289 -138 -365 -1 -7 -8 -37 -14
-67 -12 -59 -17 -91 -29 -185 -10 -75 -10 -380 0 -460 11 -98 16 -129 22 -155
3 -14 8 -36 11 -50 3 -14 7 -33 10 -42 3 -9 7 -25 9 -36 10 -53 72 -218 118
-312 44 -91 149 -263 181 -296 6 -6 22 -26 36 -44 31 -41 185 -195 233 -233
19 -15 50 -41 68 -57 19 -16 39 -30 46 -30 6 0 13 -4 15 -8 4 -12 95 -72 107
-72 6 0 11 -4 11 -10 0 -5 7 -10 15 -10 8 0 15 -3 15 -7 0 -5 10 -13 23 -19
12 -5 67 -33 122 -61 55 -28 124 -61 154 -73 62 -25 250 -88 283 -94 13 -2 50
-12 83 -20 33 -9 74 -19 90 -22 17 -3 35 -7 40 -8 23 -6 83 -17 115 -21 19 -2
46 -6 60 -9 13 -3 52 -8 85 -11 33 -3 71 -8 85 -10 52 -8 250 -17 395 -18 230
-1 491 19 645 49 19 4 45 7 58 7 12 1 22 3 22 7 0 3 10 5 23 6 12 0 33 3 47 6
41 10 194 48 208 53 7 3 13 4 15 4 5 1 154 52 172 60 17 8 48 20 65 26 3 1 19
8 35 15 17 7 33 13 38 12 4 -1 7 2 7 8 0 6 3 9 8 8 9 -3 146 65 150 75 2 4 8
7 13 7 24 0 292 184 394 271 142 121 361 375 409 472 8 18 15 23 18 15 2 -7 4
-244 3 -526 l0 -513 37 3 c21 1 40 -1 44 -5 4 -3 14 -2 24 3 10 5 20 7 23 3 8
-7 97 -10 97 -3 0 3 21 4 47 3 27 -1 48 -2 48 -3 0 -6 58 -4 61 2 3 5 13 4 22
-1 11 -6 24 -6 35 0 11 7 17 7 17 0 0 -6 9 -8 23 -3 25 9 74 8 83 -1 4 -4 14
-2 24 3 10 5 20 7 23 3 8 -7 97 -10 97 -3 0 7 85 4 97 -3 5 -3 15 -2 22 2 7 5
21 7 30 4 15 -4 16 46 16 641 0 355 3 642 6 638 4 -4 37 -45 75 -92 102 -126
109 -135 234 -260 115 -114 157 -153 240 -220 24 -19 51 -43 62 -52 10 -10 18
-16 18 -13 0 3 11 -6 25 -20 14 -14 30 -25 35 -25 5 0 15 -6 22 -13 12 -12 63
-47 188 -130 30 -21 60 -37 67 -37 6 0 13 -4 15 -8 2 -5 37 -26 78 -48 41 -21
77 -42 78 -46 2 -5 9 -8 15 -8 7 0 26 -7 42 -16 37 -19 187 -85 200 -88 6 -2
21 -8 35 -14 21 -9 51 -21 70 -27 3 -1 12 -4 20 -8 27 -11 178 -58 191 -61 8
-1 20 -5 27 -9 6 -5 12 -6 12 -2 0 3 9 1 19 -5 11 -5 36 -13 57 -16 20 -3 49
-11 63 -16 14 -6 32 -10 38 -9 7 1 32 -4 55 -10 24 -7 52 -14 63 -16 11 -1 36
-6 55 -10 19 -3 46 -8 60 -9 14 -2 39 -6 55 -8 17 -3 50 -8 75 -11 25 -3 59
-7 75 -10 17 -3 55 -7 85 -9 30 -2 102 -7 160 -11 175 -13 523 -8 690 10 131
14 278 35 350 50 14 3 40 8 57 11 18 3 84 18 145 35 62 16 123 31 135 34 12 3
35 10 50 16 16 6 29 10 30 10 3 0 5 0 73 24 25 9 50 17 55 19 10 3 46 17 100
39 17 6 32 12 35 12 3 1 23 9 45 19 77 34 90 39 98 38 4 -1 7 2 7 8 0 6 3 9 8
8 21 -5 338 173 437 246 100 74 206 155 235 180 67 58 300 295 300 306 0 5 5
10 10 10 21 0 8 26 -42 84 -29 34 -64 74 -78 90 -14 16 -37 42 -51 57 -15 15
-33 37 -41 48 -8 11 -40 49 -71 83 -31 35 -73 83 -94 107 -21 25 -56 65 -78
89 l-41 43 -32 -30 c-18 -17 -32 -33 -32 -35 0 -6 -117 -121 -175 -172 -27
-24 -66 -57 -85 -74 -66 -57 -285 -199 -400 -258 -245 -126 -570 -232 -818
-267 -15 -3 -38 -7 -51 -9 -13 -3 -41 -6 -63 -8 -22 -1 -42 -6 -44 -10 -3 -4
-14 -3 -25 2 -10 6 -19 7 -19 3 0 -11 -99 -16 -320 -16 -154 0 -335 7 -335 13
0 0 -25 3 -55 5 -30 2 -71 7 -90 10 -19 4 -46 8 -60 10 -27 4 -70 12 -110 20
-14 3 -38 8 -55 11 -16 3 -50 11 -75 18 -25 7 -49 14 -55 15 -25 4 -98 26
-185 56 -149 52 -195 69 -198 78 -2 4 -10 7 -17 7 -7 0 -39 14 -70 30 -31 17
-63 30 -70 30 -7 0 -15 3 -17 8 -1 4 -19 16 -38 26 -79 44 -262 168 -345 237
-124 100 -294 274 -392 401 -46 58 -83 110 -83 114 -1 5 -14 25 -30 44 -17 19
-30 40 -30 47 0 7 -3 13 -7 13 -5 0 -13 10 -19 23 -6 12 -32 63 -57 112 -52
104 -129 285 -120 285 3 0 1 6 -5 12 -5 7 -15 33 -22 58 -6 25 -14 52 -17 60
-3 8 -7 20 -8 25 -2 6 -12 46 -23 90 -19 74 -25 101 -37 180 -7 39 -13 70 -15
70 -1 0 -6 43 -14 150 l-7 80 2813 -1 c1547 0 2818 1 2823 3 21 7 25 703 4
703 -3 0 -6 17 -6 38 -1 35 -8 98 -17 152 -3 14 -7 45 -10 70 -4 25 -18 97
-31 160 -14 63 -27 124 -29 136 -1 11 -6 25 -9 31 -3 5 -8 21 -10 34 -3 14
-19 72 -37 130 -18 57 -34 114 -37 127 -3 12 -10 22 -15 22 -5 0 -7 4 -4 8 3
5 -2 21 -10 36 -7 16 -14 33 -14 38 0 5 -11 33 -24 61 -14 29 -28 64 -31 80
-4 15 -10 27 -14 27 -3 0 -17 27 -31 60 -14 33 -28 60 -32 60 -5 0 -8 9 -8 19
0 11 -3 21 -7 23 -5 2 -16 19 -25 38 -47 94 -187 320 -199 320 -5 0 -9 5 -9
11 0 10 -61 95 -123 169 -138 168 -380 408 -437 434 -11 5 -20 12 -20 16 0 4
-37 33 -82 65 -46 32 -93 68 -105 79 -13 11 -23 15 -23 10 0 -5 -4 -4 -8 2
-12 18 -182 119 -327 194 -152 78 -442 193 -546 216 -13 3 -35 7 -48 10 -14 3
-29 8 -35 11 -9 6 -24 10 -136 32 -30 6 -66 14 -80 17 -39 8 -148 25 -195 29
-16 2 -55 6 -85 10 -30 3 -89 8 -130 10 -41 2 -75 5 -75 5 0 10 -426 -2 -555
-15 -68 -7 -188 -23 -220 -30 -14 -3 -38 -7 -55 -10 -43 -6 -68 -12 -180 -40
-55 -14 -112 -28 -126 -31 -14 -2 -71 -21 -125 -40 -55 -20 -103 -37 -109 -38
-5 -2 -23 -8 -38 -14 -16 -7 -30 -12 -32 -12 -18 0 -345 -162 -387 -192 -16
-11 -28 -17 -28 -14 0 3 -34 -17 -75 -44 -41 -28 -79 -50 -85 -50 -5 0 -10 -4
-10 -10 0 -5 -5 -10 -11 -10 -6 0 -17 -6 -24 -12 -8 -7 -30 -24 -50 -38 -54
-37 -156 -116 -214 -165 -129 -108 -311 -296 -416 -429 -16 -21 -39 -48 -50
-61 -11 -13 -40 -53 -65 -90 -25 -37 -50 -72 -56 -79 -6 -6 -13 -16 -15 -21
-2 -6 -15 -28 -29 -49 l-24 -39 -14 34 c-28 64 -40 94 -47 119 -8 26 -96 210
-118 245 -6 11 -24 39 -39 63 -16 24 -28 45 -28 48 0 3 -33 48 -72 102 -89
118 -265 297 -373 379 -142 108 -240 169 -385 242 -85 43 -190 89 -220 96 -8
2 -43 16 -65 25 -27 12 -185 61 -210 65 -27 5 -60 13 -60 15 0 2 -20 6 -65 15
-19 3 -51 10 -70 15 -35 9 -99 19 -155 25 -16 2 -30 4 -30 5 0 1 -11 3 -25 5
-138 19 -228 27 -327 29 -40 0 -73 3 -73 6 0 4 -329 8 -333 4z m5748 -790 c39
-4 80 -7 93 -7 12 -1 22 -3 22 -6 0 -4 15 -7 33 -7 34 -2 95 -10 137 -19 14
-4 36 -8 50 -11 14 -3 59 -14 100 -26 41 -11 82 -22 90 -23 8 -2 16 -4 18 -5
1 -2 5 -3 10 -5 4 -1 16 -5 27 -9 11 -4 45 -17 75 -28 81 -29 86 -32 195 -84
55 -27 102 -52 103 -56 2 -5 8 -8 14 -8 14 0 212 -130 216 -141 2 -5 10 -9 17
-9 7 0 15 -3 17 -7 2 -5 26 -26 53 -47 91 -71 289 -279 370 -388 113 -151 293
-457 278 -472 -4 -3 -1 -6 5 -6 7 0 12 -5 12 -10 0 -6 10 -32 21 -58 32 -71
44 -101 67 -167 40 -118 79 -263 85 -320 2 -17 7 -36 11 -43 4 -7 4 -16 1 -22
-3 -5 -3 -10 2 -10 4 0 8 -15 9 -33 2 -43 9 -100 15 -112 2 -6 4 -28 4 -50 l0
-40 -2390 0 -2390 0 1 25 c1 23 10 107 18 170 8 55 28 159 48 235 11 44 21 85
22 90 6 27 49 161 54 170 4 6 7 15 8 20 3 18 85 207 117 270 17 33 30 63 29
68 -1 4 3 7 9 7 5 0 15 14 20 30 6 17 15 30 21 30 5 0 7 4 3 9 -3 5 1 15 8 23
7 7 24 31 37 53 13 22 30 46 37 53 8 8 20 26 27 40 8 15 23 36 35 46 12 11 21
23 21 28 0 5 10 19 23 32 12 13 42 47 67 76 43 51 128 135 180 180 14 12 40
35 57 51 18 16 35 29 38 29 3 0 17 11 31 25 14 14 28 25 33 25 4 0 16 8 27 18
11 10 41 32 68 48 26 16 60 37 74 46 48 30 220 122 232 123 3 0 10 4 17 8 14
9 192 78 213 82 8 2 27 8 43 14 30 11 176 50 217 57 14 3 34 8 45 11 11 3 31
7 45 9 36 3 107 13 143 20 17 3 73 7 125 9 52 2 95 5 97 7 5 5 264 -1 340 -8z
m-3820 -2873 c20 -1 20 -7 20 -553 l-1 -553 -34 -80 c-73 -172 -170 -336 -289
-490 -66 -86 -244 -263 -331 -331 -80 -63 -212 -149 -222 -146 -5 1 -8 -2 -8
-7 0 -5 -10 -13 -22 -17 -13 -3 -35 -15 -50 -25 -14 -11 -33 -19 -42 -19 -9 0
-16 -4 -16 -10 0 -5 -9 -10 -20 -10 -11 0 -20 -4 -20 -10 0 -5 -8 -10 -18 -10
-10 0 -22 -3 -26 -7 -4 -5 -11 -8 -14 -9 -4 0 -23 -7 -42 -16 -29 -12 -101
-39 -120 -43 -3 -1 -18 -7 -33 -13 -16 -7 -34 -12 -42 -12 -8 0 -26 -5 -42
-12 -15 -6 -31 -11 -34 -10 -4 1 -22 -3 -40 -9 -19 -5 -45 -11 -59 -14 -14 -3
-36 -7 -50 -10 -86 -18 -165 -28 -315 -42 -137 -13 -619 -3 -646 13 -3 1 -28
6 -55 9 -27 4 -80 14 -119 22 -38 8 -79 16 -91 19 -12 2 -40 10 -63 19 -23 8
-43 14 -46 15 -36 5 -65 14 -65 22 0 5 -4 7 -9 4 -12 -7 -167 62 -266 118 -85
49 -193 132 -266 205 -60 61 -149 173 -149 188 0 6 -3 13 -8 15 -22 10 -128
251 -117 268 3 5 1 10 -4 12 -9 3 -23 68 -25 111 0 9 -3 17 -6 17 -11 0 -15
254 -6 335 11 88 14 110 16 110 1 0 3 15 6 34 2 19 9 40 15 48 6 7 9 13 6 13
-19 0 98 260 135 300 10 10 18 22 18 26 0 8 77 100 130 155 56 60 166 137 261
185 49 24 91 44 94 44 7 1 37 11 60 20 38 17 150 48 230 64 122 25 127 26 170
32 129 17 185 22 335 29 68 3 125 7 126 8 2 2 2168 0 2209 -2z"/>
</g>
</svg>
